<svg height="700" width="1400" xmlns="http://www.w3.org/2000/svg">
	<polygon points="388.889,64.8148 518.519,64.8148 777.778,97.2222 583.333,97.2222 " style="stroke:black;stroke-width:3" fill-opacity="0.1"/>
	<polygon points="583.333,291.667 583.333,97.2222 777.778,97.2222 777.778,291.667 " style="stroke:black;stroke-width:3" fill-opacity="0.1"/>
	<polygon points="777.778,291.667 777.778,97.2222 518.519,64.8148 518.519,194.444 " style="stroke:black;stroke-width:3" fill-opacity="0.1"/>
	<polygon points="518.519,194.444 388.889,194.444 583.333,291.667 777.778,291.667 " style="stroke:black;stroke-width:3" fill-opacity="0.1"/>
	<polygon points="388.889,194.444 388.889,64.8148 583.333,97.2222 583.333,291.667 " style="stroke:black;stroke-width:3" fill-opacity="0.1"/>
	<polygon points="518.519,194.444 518.519,64.8148 388.889,64.8148 388.889,194.444 " style="stroke:black;stroke-width:3" fill-opacity="0.1"/>
	<circle r="3" cx="388.889" cy="64.8148" fill="red" />
	<circle r="3" cx="388.889" cy="194.444" fill="red" />
	<circle r="3" cx="583.333" cy="97.2222" fill="red" />
	<circle r="3" cx="583.333" cy="291.667" fill="red" />
	<circle r="3" cx="518.519" cy="64.8148" fill="red" />
	<circle r="3" cx="518.519" cy="194.444" fill="red" />
	<circle r="3" cx="777.778" cy="97.2222" fill="red" />
	<circle r="3" cx="777.778" cy="291.667" fill="red" />
</svg>