<svg height="900" width="1600" xmlns="http://www.w3.org/2000/svg">
	<polygon points="760.18,82.702 785.958,65.9912 745.281,70.6368 " style="stroke:black;stroke-width:3" fill-opacity="0.1"/>
	<polygon points="760.18,82.702 745.281,70.6368 703.802,72.9554 " style="stroke:black;stroke-width:3" fill-opacity="0.1"/>
	<polygon points="760.18,82.702 703.802,72.9554 745.629,70.3168 " style="stroke:black;stroke-width:3" fill-opacity="0.1"/>
	<polygon points="760.18,82.702 745.629,70.3168 810.224,104.974 " style="stroke:black;stroke-width:3" fill-opacity="0.1"/>
	<polygon points="750.767,663.995 751.688,659.339 759.312,805.33 758.391,803.806 " style="stroke:black;stroke-width:3" fill-opacity="0.1"/>
	<polygon points="764.456,657.171 769.738,659.288 777.363,805.279 772.081,803.162 " style="stroke:black;stroke-width:3" fill-opacity="0.1"/>
	<polygon points="751.688,659.339 764.456,657.171 772.081,803.162 759.312,805.33 " style="stroke:black;stroke-width:3" fill-opacity="0.1"/>
	<polygon points="762.932,658.941 750.767,663.995 758.391,803.806 770.556,804.932 " style="stroke:black;stroke-width:3" fill-opacity="0.1"/>
	<polygon points="769.738,659.288 762.932,658.941 770.556,804.932 777.363,805.279 " style="stroke:black;stroke-width:3" fill-opacity="0.1"/>
	<polygon points="759.312,805.33 772.081,803.162 768.729,809.557 " style="stroke:black;stroke-width:3" fill-opacity="0.1"/>
	<polygon points="758.391,803.806 759.312,805.33 768.729,809.557 " style="stroke:black;stroke-width:3" fill-opacity="0.1"/>
	<polygon points="770.556,804.932 758.391,803.806 768.729,809.557 " style="stroke:black;stroke-width:3" fill-opacity="0.1"/>
	<polygon points="777.363,805.279 770.556,804.932 768.729,809.557 " style="stroke:black;stroke-width:3" fill-opacity="0.1"/>
	<polygon points="772.081,803.162 777.363,805.279 768.729,809.557 " style="stroke:black;stroke-width:3" fill-opacity="0.1"/>
	<polygon points="810.224,104.974 785.958,65.9912 760.18,82.702 " style="stroke:black;stroke-width:3" fill-opacity="0.1"/>
	<polygon points="967.875,185.077 906.092,108.174 1004.34,162.54 " style="stroke:black;stroke-width:3" fill-opacity="0.1"/>
	<polygon points="854.998,590.559 996.271,617.495 815.912,691.826 " style="stroke:black;stroke-width:3" fill-opacity="0.1"/>
	<polygon points="523.813,594.501 670.001,617.495 614.269,654.374 " style="stroke:black;stroke-width:3" fill-opacity="0.1"/>
	<polygon points="511.939,590.559 468.357,617.495 614.269,691.826 " style="stroke:black;stroke-width:3" fill-opacity="0.1"/>
	<polygon points="858.365,581.63 670.001,617.495 815.912,654.374 " style="stroke:black;stroke-width:3" fill-opacity="0.1"/>
	<polygon points="1067.02,590.558 996.271,617.495 940.537,691.825 " style="stroke:black;stroke-width:3" fill-opacity="0.1"/>
	<polygon points="940.537,691.825 815.912,654.374 777.536,659.751 816.855,688.029 " style="stroke:black;stroke-width:3" fill-opacity="0.1"/>
	<polygon points="940.537,691.825 996.271,617.495 815.912,654.374 " style="stroke:black;stroke-width:3" fill-opacity="0.1"/>
	<polygon points="996.271,617.495 858.365,581.63 815.912,654.374 " style="stroke:black;stroke-width:3" fill-opacity="0.1"/>
	<polygon points="815.912,654.374 614.269,691.826 709.614,687.54 777.536,659.751 " style="stroke:black;stroke-width:3" fill-opacity="0.1"/>
	<polygon points="815.912,654.374 670.001,617.495 614.269,691.826 " style="stroke:black;stroke-width:3" fill-opacity="0.1"/>
	<polygon points="670.001,617.495 511.939,590.559 614.269,691.826 " style="stroke:black;stroke-width:3" fill-opacity="0.1"/>
	<polygon points="614.269,691.826 614.269,654.374 708.563,659.012 709.614,687.54 " style="stroke:black;stroke-width:3" fill-opacity="0.1"/>
	<polygon points="614.269,691.826 468.357,617.495 614.269,654.374 " style="stroke:black;stroke-width:3" fill-opacity="0.1"/>
	<polygon points="468.357,617.495 523.813,594.501 614.269,654.374 " style="stroke:black;stroke-width:3" fill-opacity="0.1"/>
	<polygon points="614.269,654.374 815.912,691.826 780.5,687.267 708.563,659.012 " style="stroke:black;stroke-width:3" fill-opacity="0.1"/>
	<polygon points="614.269,654.374 670.001,617.495 815.912,691.826 " style="stroke:black;stroke-width:3" fill-opacity="0.1"/>
	<polygon points="670.001,617.495 854.998,590.559 815.912,691.826 " style="stroke:black;stroke-width:3" fill-opacity="0.1"/>
	<polygon points="815.912,691.826 940.537,691.825 816.855,688.029 780.5,687.267 " style="stroke:black;stroke-width:3" fill-opacity="0.1"/>
	<polygon points="815.912,691.826 996.271,617.495 940.537,691.825 " style="stroke:black;stroke-width:3" fill-opacity="0.1"/>
	<polygon points="996.271,617.495 1067.02,590.558 940.537,691.825 " style="stroke:black;stroke-width:3" fill-opacity="0.1"/>
	<polygon points="901.43,137 835.631,162.54 948.377,195.436 " style="stroke:black;stroke-width:3" fill-opacity="0.1"/>
	<polygon points="901.43,137 704.448,108.174 835.631,162.54 " style="stroke:black;stroke-width:3" fill-opacity="0.1"/>
	<polygon points="704.448,108.174 680.85,185.076 835.631,162.54 " style="stroke:black;stroke-width:3" fill-opacity="0.1"/>
	<polygon points="704.448,108.174 562.652,162.54 680.85,185.076 " style="stroke:black;stroke-width:3" fill-opacity="0.1"/>
	<polygon points="704.448,108.174 579.823,108.175 562.652,162.54 " style="stroke:black;stroke-width:3" fill-opacity="0.1"/>
	<polygon points="579.823,108.175 503.456,185.078 562.652,162.54 " style="stroke:black;stroke-width:3" fill-opacity="0.1"/>
	<polygon points="579.823,108.175 562.652,162.54 503.456,185.078 " style="stroke:black;stroke-width:3" fill-opacity="0.1"/>
	<polygon points="579.823,108.175 704.448,108.174 562.652,162.54 " style="stroke:black;stroke-width:3" fill-opacity="0.1"/>
	<polygon points="704.448,108.174 680.85,185.077 562.652,162.54 " style="stroke:black;stroke-width:3" fill-opacity="0.1"/>
	<polygon points="1004.34,162.54 901.43,137 948.377,195.436 " style="stroke:black;stroke-width:3" fill-opacity="0.1"/>
	<polygon points="1004.34,162.54 906.092,108.174 901.43,137 " style="stroke:black;stroke-width:3" fill-opacity="0.1"/>
	<polygon points="906.092,108.174 785.958,65.9912 810.224,104.974 901.43,137 " style="stroke:black;stroke-width:3" fill-opacity="0.1"/>
	<polygon points="704.448,108.174 835.631,162.54 680.85,185.077 " style="stroke:black;stroke-width:3" fill-opacity="0.1"/>
	<polygon points="704.448,108.174 906.092,108.174 835.631,162.54 " style="stroke:black;stroke-width:3" fill-opacity="0.1"/>
	<polygon points="906.092,108.174 967.875,185.077 835.631,162.54 " style="stroke:black;stroke-width:3" fill-opacity="0.1"/>
	<polygon points="764.456,657.171 751.688,659.339 708.563,659.012 780.5,687.267 " style="stroke:black;stroke-width:3" fill-opacity="0.1"/>
	<polygon points="751.688,659.339 750.767,663.995 709.614,687.54 708.563,659.012 " style="stroke:black;stroke-width:3" fill-opacity="0.1"/>
	<polygon points="750.767,663.995 762.932,658.941 777.536,659.751 709.614,687.54 " style="stroke:black;stroke-width:3" fill-opacity="0.1"/>
	<polygon points="769.738,659.288 764.456,657.171 780.5,687.267 816.855,688.029 " style="stroke:black;stroke-width:3" fill-opacity="0.1"/>
	<polygon points="762.932,658.941 769.738,659.288 816.855,688.029 777.536,659.751 " style="stroke:black;stroke-width:3" fill-opacity="0.1"/>
	<polygon points="745.281,70.6368 785.958,65.9912 906.092,108.174 704.448,108.174 " style="stroke:black;stroke-width:3" fill-opacity="0.1"/>
	<polygon points="810.224,104.974 745.629,70.3168 704.448,108.174 901.43,137 " style="stroke:black;stroke-width:3" fill-opacity="0.1"/>
	<polygon points="703.802,72.9554 745.281,70.6368 704.448,108.174 579.823,108.175 " style="stroke:black;stroke-width:3" fill-opacity="0.1"/>
	<polygon points="745.629,70.3168 703.802,72.9554 579.823,108.175 704.448,108.174 " style="stroke:black;stroke-width:3" fill-opacity="0.1"/>
	<polygon points="967.875,185.077 1004.34,162.54 942.023,209.393 933.81,209.017 " style="stroke:black;stroke-width:3" fill-opacity="0.1"/>
	<polygon points="680.85,185.077 835.631,162.54 809.839,194.285 695.159,204.871 " style="stroke:black;stroke-width:3" fill-opacity="0.1"/>
	<polygon points="503.456,185.078 562.652,162.54 595.795,223.653 563.433,236.828 " style="stroke:black;stroke-width:3" fill-opacity="0.1"/>
	<polygon points="680.85,185.076 562.652,162.54 627.189,230.424 684.547,232.935 " style="stroke:black;stroke-width:3" fill-opacity="0.1"/>
	<polygon points="948.377,195.436 835.631,162.54 831.66,209.718 886.985,216.187 901.264,221.337 " style="stroke:black;stroke-width:3" fill-opacity="0.1"/>
	<polygon points="967.875,185.077 933.81,209.017 920.329,207.732 " style="stroke:black;stroke-width:3" fill-opacity="0.1"/>
	<polygon points="680.85,185.077 695.159,204.871 678.506,208.183 " style="stroke:black;stroke-width:3" fill-opacity="0.1"/>
	<polygon points="503.456,185.078 563.433,236.828 544.315,220.166 " style="stroke:black;stroke-width:3" fill-opacity="0.1"/>
	<polygon points="680.85,185.076 684.547,232.935 716.871,227.799 " style="stroke:black;stroke-width:3" fill-opacity="0.1"/>
	<polygon points="948.377,195.436 901.264,221.337 919.966,224.203 " style="stroke:black;stroke-width:3" fill-opacity="0.1"/>
	<polygon points="854.439,393.913 866.908,499.239 887.188,495.541 " style="stroke:black;stroke-width:3" fill-opacity="0.1"/>
	<polygon points="854.439,393.913 818.428,393.913 847.011,497.875 866.908,499.239 " style="stroke:black;stroke-width:3" fill-opacity="0.1"/>
	<polygon points="818.428,393.913 814.628,494.786 847.011,497.875 " style="stroke:black;stroke-width:3" fill-opacity="0.1"/>
	<polygon points="760.161,393.913 743.213,487.203 783.783,490.029 " style="stroke:black;stroke-width:3" fill-opacity="0.1"/>
	<polygon points="760.161,393.913 701.894,393.913 710.339,488.683 743.213,487.203 " style="stroke:black;stroke-width:3" fill-opacity="0.1"/>
	<polygon points="701.894,393.913 676.451,483.565 710.339,488.683 " style="stroke:black;stroke-width:3" fill-opacity="0.1"/>
	<polygon points="665.883,393.913 653.821,480.382 658.544,480.731 " style="stroke:black;stroke-width:3" fill-opacity="0.1"/>
	<polygon points="665.883,393.913 665.883,393.913 654.563,479.138 653.821,480.382 " style="stroke:black;stroke-width:3" fill-opacity="0.1"/>
	<polygon points="665.883,393.913 658.848,480.18 654.563,479.138 " style="stroke:black;stroke-width:3" fill-opacity="0.1"/>
	<polygon points="701.894,393.913 709.964,493.563 674.137,487.449 " style="stroke:black;stroke-width:3" fill-opacity="0.1"/>
	<polygon points="701.894,393.913 760.161,393.913 740.006,497.985 709.964,493.563 " style="stroke:black;stroke-width:3" fill-opacity="0.1"/>
	<polygon points="760.161,393.913 786.524,495.434 740.006,497.985 " style="stroke:black;stroke-width:3" fill-opacity="0.1"/>
	<polygon points="818.428,393.913 844.399,491.753 813.975,493.736 " style="stroke:black;stroke-width:3" fill-opacity="0.1"/>
	<polygon points="818.428,393.913 854.439,393.913 863.489,491.366 844.399,491.753 " style="stroke:black;stroke-width:3" fill-opacity="0.1"/>
	<polygon points="854.439,393.913 885.553,493.195 863.489,491.366 " style="stroke:black;stroke-width:3" fill-opacity="0.1"/>
	<polygon points="818.428,393.913 760.161,393.913 783.783,490.029 814.628,494.786 " style="stroke:black;stroke-width:3" fill-opacity="0.1"/>
	<polygon points="818.428,393.913 812.67,304.038 777.341,293.165 760.161,393.913 " style="stroke:black;stroke-width:3" fill-opacity="0.1"/>
	<polygon points="835.631,162.54 680.85,185.076 716.871,227.799 800.606,206.912 " style="stroke:black;stroke-width:3" fill-opacity="0.1"/>
	<polygon points="701.894,393.913 665.883,393.913 658.544,480.731 676.451,483.565 " style="stroke:black;stroke-width:3" fill-opacity="0.1"/>
	<polygon points="701.894,393.913 669.619,285.283 648.56,288.639 665.883,393.913 " style="stroke:black;stroke-width:3" fill-opacity="0.1"/>
	<polygon points="562.652,162.54 503.456,185.078 544.315,220.166 602.398,228.361 " style="stroke:black;stroke-width:3" fill-opacity="0.1"/>
	<polygon points="665.883,393.913 701.894,393.913 674.137,487.449 658.848,480.18 " style="stroke:black;stroke-width:3" fill-opacity="0.1"/>
	<polygon points="665.883,393.913 647.83,290.692 669.13,290.985 701.894,393.913 " style="stroke:black;stroke-width:3" fill-opacity="0.1"/>
	<polygon points="562.652,162.54 680.85,185.077 678.506,208.183 611.43,220.029 " style="stroke:black;stroke-width:3" fill-opacity="0.1"/>
	<polygon points="760.161,393.913 818.428,393.913 813.975,493.736 786.524,495.434 " style="stroke:black;stroke-width:3" fill-opacity="0.1"/>
	<polygon points="760.161,393.913 786.601,269.876 816.563,267.879 818.428,393.913 " style="stroke:black;stroke-width:3" fill-opacity="0.1"/>
	<polygon points="835.631,162.54 967.875,185.077 920.329,207.732 832.116,196.624 " style="stroke:black;stroke-width:3" fill-opacity="0.1"/>
	<polygon points="854.439,393.913 854.439,393.913 887.188,495.541 885.553,493.195 " style="stroke:black;stroke-width:3" fill-opacity="0.1"/>
	<polygon points="854.439,393.913 873.374,296.088 866.801,305.669 854.439,393.913 " style="stroke:black;stroke-width:3" fill-opacity="0.1"/>
	<polygon points="1004.34,162.54 948.377,195.436 919.966,224.203 936.775,215.192 " style="stroke:black;stroke-width:3" fill-opacity="0.1"/>
	<polygon points="563.433,236.828 595.795,223.653 647.83,290.692 629.088,295.177 " style="stroke:black;stroke-width:3" fill-opacity="0.1"/>
	<polygon points="901.264,221.337 886.985,216.187 831.66,209.718 812.67,304.038 834.633,312.517 " style="stroke:black;stroke-width:3" fill-opacity="0.1"/>
	<polygon points="678.506,208.183 695.159,204.871 729.825,283.584 702.047,289.255 " style="stroke:black;stroke-width:3" fill-opacity="0.1"/>
	<polygon points="716.871,227.799 684.547,232.935 702.489,287.874 737.72,288.625 " style="stroke:black;stroke-width:3" fill-opacity="0.1"/>
	<polygon points="800.606,206.912 716.871,227.799 737.72,288.625 777.341,293.165 " style="stroke:black;stroke-width:3" fill-opacity="0.1"/>
	<polygon points="602.398,228.361 627.189,230.424 562.652,162.54 " style="stroke:black;stroke-width:3" fill-opacity="0.1"/>
	<polygon points="611.43,220.029 678.506,208.183 702.047,289.255 669.13,290.985 " style="stroke:black;stroke-width:3" fill-opacity="0.1"/>
	<polygon points="832.116,196.624 809.839,194.285 835.631,162.54 " style="stroke:black;stroke-width:3" fill-opacity="0.1"/>
	<polygon points="936.775,215.192 919.966,224.203 860.504,309.865 866.801,305.669 " style="stroke:black;stroke-width:3" fill-opacity="0.1"/>
	<polygon points="695.159,204.871 809.839,194.285 786.601,269.876 729.825,283.584 " style="stroke:black;stroke-width:3" fill-opacity="0.1"/>
	<polygon points="684.547,232.935 627.189,230.424 669.619,285.283 702.489,287.874 " style="stroke:black;stroke-width:3" fill-opacity="0.1"/>
	<polygon points="920.329,207.732 933.81,209.017 877.967,282.555 865.034,273.898 " style="stroke:black;stroke-width:3" fill-opacity="0.1"/>
	<polygon points="544.315,220.166 563.433,236.828 629.088,295.177 629.38,296.317 " style="stroke:black;stroke-width:3" fill-opacity="0.1"/>
	<polygon points="919.966,224.203 901.264,221.337 834.633,312.517 860.504,309.865 " style="stroke:black;stroke-width:3" fill-opacity="0.1"/>
	<polygon points="602.398,228.361 544.315,220.166 629.38,296.317 648.56,288.639 " style="stroke:black;stroke-width:3" fill-opacity="0.1"/>
	<polygon points="611.43,220.029 595.795,223.653 562.652,162.54 " style="stroke:black;stroke-width:3" fill-opacity="0.1"/>
	<polygon points="832.116,196.624 920.329,207.732 865.034,273.898 816.563,267.879 " style="stroke:black;stroke-width:3" fill-opacity="0.1"/>
	<polygon points="936.775,215.192 942.023,209.393 1004.34,162.54 " style="stroke:black;stroke-width:3" fill-opacity="0.1"/>
	<polygon points="800.606,206.912 831.66,209.718 835.631,162.54 " style="stroke:black;stroke-width:3" fill-opacity="0.1"/>
	<polygon points="933.81,209.017 942.023,209.393 873.374,296.088 877.967,282.555 " style="stroke:black;stroke-width:3" fill-opacity="0.1"/>
	<polygon points="605.042,544.132 686.664,551.086 670.001,617.495 523.813,594.501 " style="stroke:black;stroke-width:3" fill-opacity="0.1"/>
	<polygon points="714.772,556.487 819.964,567.37 854.998,590.559 670.001,617.495 " style="stroke:black;stroke-width:3" fill-opacity="0.1"/>
	<polygon points="909.598,557.747 926.286,556.441 996.271,617.495 " style="stroke:black;stroke-width:3" fill-opacity="0.1"/>
	<polygon points="837.331,545.644 810.252,546.368 858.365,581.63 " style="stroke:black;stroke-width:3" fill-opacity="0.1"/>
	<polygon points="588.239,543.345 605.042,544.132 523.813,594.501 " style="stroke:black;stroke-width:3" fill-opacity="0.1"/>
	<polygon points="975.61,557.705 975.467,557.547 1067.02,590.558 " style="stroke:black;stroke-width:3" fill-opacity="0.1"/>
	<polygon points="975.467,557.547 922.425,548.586 996.271,617.495 1067.02,590.558 " style="stroke:black;stroke-width:3" fill-opacity="0.1"/>
	<polygon points="901.696,546.336 837.331,545.644 858.365,581.63 996.271,617.495 " style="stroke:black;stroke-width:3" fill-opacity="0.1"/>
	<polygon points="719.026,545.544 687.058,544.897 670.001,617.495 " style="stroke:black;stroke-width:3" fill-opacity="0.1"/>
	<polygon points="587.28,544.903 575.433,544.216 468.357,617.495 511.939,590.559 " style="stroke:black;stroke-width:3" fill-opacity="0.1"/>
	<polygon points="575.829,543.675 588.239,543.345 523.813,594.501 468.357,617.495 " style="stroke:black;stroke-width:3" fill-opacity="0.1"/>
	<polygon points="686.664,551.086 714.772,556.487 670.001,617.495 " style="stroke:black;stroke-width:3" fill-opacity="0.1"/>
	<polygon points="839.255,566.01 909.598,557.747 996.271,617.495 854.998,590.559 " style="stroke:black;stroke-width:3" fill-opacity="0.1"/>
	<polygon points="926.286,556.441 975.61,557.705 1067.02,590.558 996.271,617.495 " style="stroke:black;stroke-width:3" fill-opacity="0.1"/>
	<polygon points="604.498,544.777 587.28,544.903 511.939,590.559 " style="stroke:black;stroke-width:3" fill-opacity="0.1"/>
	<polygon points="819.964,567.37 839.255,566.01 854.998,590.559 " style="stroke:black;stroke-width:3" fill-opacity="0.1"/>
	<polygon points="922.425,548.586 901.696,546.336 996.271,617.495 " style="stroke:black;stroke-width:3" fill-opacity="0.1"/>
	<polygon points="810.252,546.368 719.026,545.544 670.001,617.495 858.365,581.63 " style="stroke:black;stroke-width:3" fill-opacity="0.1"/>
	<polygon points="687.058,544.897 604.498,544.777 511.939,590.559 670.001,617.495 " style="stroke:black;stroke-width:3" fill-opacity="0.1"/>
	<polygon points="575.433,544.216 575.829,543.675 468.357,617.495 " style="stroke:black;stroke-width:3" fill-opacity="0.1"/>
	<polygon points="816.563,267.879 786.601,269.876 809.839,194.285 832.116,196.624 " style="stroke:black;stroke-width:3" fill-opacity="0.1"/>
	<polygon points="877.967,282.555 873.374,296.088 854.439,393.913 " style="stroke:black;stroke-width:3" fill-opacity="0.1"/>
	<polygon points="648.56,288.639 669.619,285.283 627.189,230.424 602.398,228.361 " style="stroke:black;stroke-width:3" fill-opacity="0.1"/>
	<polygon points="629.088,295.177 647.83,290.692 665.883,393.913 " style="stroke:black;stroke-width:3" fill-opacity="0.1"/>
	<polygon points="702.047,289.255 729.825,283.584 760.161,393.913 701.894,393.913 " style="stroke:black;stroke-width:3" fill-opacity="0.1"/>
	<polygon points="777.341,293.165 737.72,288.625 760.161,393.913 " style="stroke:black;stroke-width:3" fill-opacity="0.1"/>
	<polygon points="669.13,290.985 702.047,289.255 701.894,393.913 " style="stroke:black;stroke-width:3" fill-opacity="0.1"/>
	<polygon points="866.801,305.669 860.504,309.865 854.439,393.913 " style="stroke:black;stroke-width:3" fill-opacity="0.1"/>
	<polygon points="702.489,287.874 669.619,285.283 701.894,393.913 " style="stroke:black;stroke-width:3" fill-opacity="0.1"/>
	<polygon points="629.38,296.317 629.088,295.177 665.883,393.913 665.883,393.913 " style="stroke:black;stroke-width:3" fill-opacity="0.1"/>
	<polygon points="669.13,290.985 647.83,290.692 595.795,223.653 611.43,220.029 " style="stroke:black;stroke-width:3" fill-opacity="0.1"/>
	<polygon points="816.563,267.879 865.034,273.898 818.428,393.913 " style="stroke:black;stroke-width:3" fill-opacity="0.1"/>
	<polygon points="866.801,305.669 873.374,296.088 942.023,209.393 936.775,215.192 " style="stroke:black;stroke-width:3" fill-opacity="0.1"/>
	<polygon points="777.341,293.165 812.67,304.038 831.66,209.718 800.606,206.912 " style="stroke:black;stroke-width:3" fill-opacity="0.1"/>
	<polygon points="648.56,288.639 629.38,296.317 665.883,393.913 " style="stroke:black;stroke-width:3" fill-opacity="0.1"/>
	<polygon points="834.633,312.517 812.67,304.038 818.428,393.913 " style="stroke:black;stroke-width:3" fill-opacity="0.1"/>
	<polygon points="737.72,288.625 702.489,287.874 701.894,393.913 760.161,393.913 " style="stroke:black;stroke-width:3" fill-opacity="0.1"/>
	<polygon points="729.825,283.584 786.601,269.876 760.161,393.913 " style="stroke:black;stroke-width:3" fill-opacity="0.1"/>
	<polygon points="865.034,273.898 877.967,282.555 854.439,393.913 818.428,393.913 " style="stroke:black;stroke-width:3" fill-opacity="0.1"/>
	<polygon points="860.504,309.865 834.633,312.517 818.428,393.913 854.439,393.913 " style="stroke:black;stroke-width:3" fill-opacity="0.1"/>
	<polygon points="885.553,493.195 887.188,495.541 975.467,557.547 975.61,557.705 " style="stroke:black;stroke-width:3" fill-opacity="0.1"/>
	<polygon points="887.188,495.541 866.908,499.239 922.425,548.586 975.467,557.547 " style="stroke:black;stroke-width:3" fill-opacity="0.1"/>
	<polygon points="847.011,497.875 814.628,494.786 837.331,545.644 901.696,546.336 " style="stroke:black;stroke-width:3" fill-opacity="0.1"/>
	<polygon points="743.213,487.203 710.339,488.683 687.058,544.897 719.026,545.544 " style="stroke:black;stroke-width:3" fill-opacity="0.1"/>
	<polygon points="658.544,480.731 653.821,480.382 575.433,544.216 587.28,544.903 " style="stroke:black;stroke-width:3" fill-opacity="0.1"/>
	<polygon points="654.563,479.138 658.848,480.18 588.239,543.345 575.829,543.675 " style="stroke:black;stroke-width:3" fill-opacity="0.1"/>
	<polygon points="709.964,493.563 740.006,497.985 714.772,556.487 686.664,551.086 " style="stroke:black;stroke-width:3" fill-opacity="0.1"/>
	<polygon points="813.975,493.736 844.399,491.753 909.598,557.747 839.255,566.01 " style="stroke:black;stroke-width:3" fill-opacity="0.1"/>
	<polygon points="863.489,491.366 885.553,493.195 975.61,557.705 926.286,556.441 " style="stroke:black;stroke-width:3" fill-opacity="0.1"/>
	<polygon points="676.451,483.565 658.544,480.731 587.28,544.903 604.498,544.777 " style="stroke:black;stroke-width:3" fill-opacity="0.1"/>
	<polygon points="786.524,495.434 813.975,493.736 839.255,566.01 819.964,567.37 " style="stroke:black;stroke-width:3" fill-opacity="0.1"/>
	<polygon points="866.908,499.239 847.011,497.875 901.696,546.336 922.425,548.586 " style="stroke:black;stroke-width:3" fill-opacity="0.1"/>
	<polygon points="783.783,490.029 743.213,487.203 719.026,545.544 810.252,546.368 " style="stroke:black;stroke-width:3" fill-opacity="0.1"/>
	<polygon points="710.339,488.683 676.451,483.565 604.498,544.777 687.058,544.897 " style="stroke:black;stroke-width:3" fill-opacity="0.1"/>
	<polygon points="653.821,480.382 654.563,479.138 575.829,543.675 575.433,544.216 " style="stroke:black;stroke-width:3" fill-opacity="0.1"/>
	<polygon points="674.137,487.449 709.964,493.563 686.664,551.086 605.042,544.132 " style="stroke:black;stroke-width:3" fill-opacity="0.1"/>
	<polygon points="740.006,497.985 786.524,495.434 819.964,567.37 714.772,556.487 " style="stroke:black;stroke-width:3" fill-opacity="0.1"/>
	<polygon points="844.399,491.753 863.489,491.366 926.286,556.441 909.598,557.747 " style="stroke:black;stroke-width:3" fill-opacity="0.1"/>
	<polygon points="814.628,494.786 783.783,490.029 810.252,546.368 837.331,545.644 " style="stroke:black;stroke-width:3" fill-opacity="0.1"/>
	<polygon points="658.848,480.18 674.137,487.449 605.042,544.132 588.239,543.345 " style="stroke:black;stroke-width:3" fill-opacity="0.1"/>
	<polygon points="762.932,658.941 750.767,663.995 690.294,717.575 765.098,716.464 " style="stroke:black;stroke-width:3" fill-opacity="0.1"/>
	<polygon points="750.767,663.995 751.688,659.339 692.99,718.293 690.294,717.575 " style="stroke:black;stroke-width:3" fill-opacity="0.1"/>
	<polygon points="765.098,716.464 690.294,717.575 644.603,745.083 719.407,752.009 " style="stroke:black;stroke-width:3" fill-opacity="0.1"/>
	<polygon points="690.294,717.575 692.99,718.293 613.16,759.915 644.603,745.083 " style="stroke:black;stroke-width:3" fill-opacity="0.1"/>
	<polygon points="719.407,752.009 644.603,745.083 561.971,747.964 623.402,753.652 " style="stroke:black;stroke-width:3" fill-opacity="0.1"/>
	<polygon points="644.603,745.083 613.16,759.915 536.149,760.145 561.971,747.964 " style="stroke:black;stroke-width:3" fill-opacity="0.1"/>
	<circle r="3" cx="760.18" cy="82.702" fill="#D900FF" />
	<circle r="3" cx="785.958" cy="65.9912" fill="#D900FF" />
	<circle r="3" cx="745.281" cy="70.6368" fill="#D900FF" />
	<circle r="3" cx="703.802" cy="72.9554" fill="#D900FF" />
	<circle r="3" cx="745.629" cy="70.3168" fill="#D900FF" />
	<circle r="3" cx="810.224" cy="104.974" fill="#D900FF" />
	<circle r="3" cx="750.767" cy="663.995" fill="#D900FF" />
	<circle r="3" cx="751.688" cy="659.339" fill="#D900FF" />
	<circle r="3" cx="759.312" cy="805.33" fill="#D900FF" />
	<circle r="3" cx="758.391" cy="803.806" fill="#D900FF" />
	<circle r="3" cx="764.456" cy="657.171" fill="#D900FF" />
	<circle r="3" cx="769.738" cy="659.288" fill="#D900FF" />
	<circle r="3" cx="777.363" cy="805.279" fill="#D900FF" />
	<circle r="3" cx="772.081" cy="803.162" fill="#D900FF" />
	<circle r="3" cx="762.932" cy="658.941" fill="#D900FF" />
	<circle r="3" cx="770.556" cy="804.932" fill="#D900FF" />
	<circle r="3" cx="768.729" cy="809.557" fill="#D900FF" />
	<circle r="3" cx="967.875" cy="185.077" fill="#D900FF" />
	<circle r="3" cx="906.092" cy="108.174" fill="#D900FF" />
	<circle r="3" cx="1004.34" cy="162.54" fill="#D900FF" />
	<circle r="3" cx="854.998" cy="590.559" fill="#D900FF" />
	<circle r="3" cx="996.271" cy="617.495" fill="#D900FF" />
	<circle r="3" cx="815.912" cy="691.826" fill="#D900FF" />
	<circle r="3" cx="523.813" cy="594.501" fill="#D900FF" />
	<circle r="3" cx="670.001" cy="617.495" fill="#D900FF" />
	<circle r="3" cx="614.269" cy="654.374" fill="#D900FF" />
	<circle r="3" cx="511.939" cy="590.559" fill="#D900FF" />
	<circle r="3" cx="468.357" cy="617.495" fill="#D900FF" />
	<circle r="3" cx="614.269" cy="691.826" fill="#D900FF" />
	<circle r="3" cx="858.365" cy="581.63" fill="#D900FF" />
	<circle r="3" cx="670.001" cy="617.495" fill="#D900FF" />
	<circle r="3" cx="815.912" cy="654.374" fill="#D900FF" />
	<circle r="3" cx="1067.02" cy="590.558" fill="#D900FF" />
	<circle r="3" cx="996.271" cy="617.495" fill="#D900FF" />
	<circle r="3" cx="940.537" cy="691.825" fill="#D900FF" />
	<circle r="3" cx="777.536" cy="659.751" fill="#D900FF" />
	<circle r="3" cx="816.855" cy="688.029" fill="#D900FF" />
	<circle r="3" cx="709.614" cy="687.54" fill="#D900FF" />
	<circle r="3" cx="708.563" cy="659.012" fill="#D900FF" />
	<circle r="3" cx="780.5" cy="687.267" fill="#D900FF" />
	<circle r="3" cx="901.43" cy="137" fill="#D900FF" />
	<circle r="3" cx="835.631" cy="162.54" fill="#D900FF" />
	<circle r="3" cx="948.377" cy="195.436" fill="#D900FF" />
	<circle r="3" cx="704.448" cy="108.174" fill="#D900FF" />
	<circle r="3" cx="680.85" cy="185.076" fill="#D900FF" />
	<circle r="3" cx="562.652" cy="162.54" fill="#D900FF" />
	<circle r="3" cx="579.823" cy="108.175" fill="#D900FF" />
	<circle r="3" cx="503.456" cy="185.078" fill="#D900FF" />
	<circle r="3" cx="562.652" cy="162.54" fill="#D900FF" />
	<circle r="3" cx="704.448" cy="108.174" fill="#D900FF" />
	<circle r="3" cx="680.85" cy="185.077" fill="#D900FF" />
	<circle r="3" cx="835.631" cy="162.54" fill="#D900FF" />
	<circle r="3" cx="942.023" cy="209.393" fill="#D900FF" />
	<circle r="3" cx="933.81" cy="209.017" fill="#D900FF" />
	<circle r="3" cx="809.839" cy="194.285" fill="#D900FF" />
	<circle r="3" cx="695.159" cy="204.871" fill="#D900FF" />
	<circle r="3" cx="595.795" cy="223.653" fill="#D900FF" />
	<circle r="3" cx="563.433" cy="236.828" fill="#D900FF" />
	<circle r="3" cx="627.189" cy="230.424" fill="#D900FF" />
	<circle r="3" cx="684.547" cy="232.935" fill="#D900FF" />
	<circle r="3" cx="831.66" cy="209.718" fill="#D900FF" />
	<circle r="3" cx="886.985" cy="216.187" fill="#D900FF" />
	<circle r="3" cx="901.264" cy="221.337" fill="#D900FF" />
	<circle r="3" cx="920.329" cy="207.732" fill="#D900FF" />
	<circle r="3" cx="678.506" cy="208.183" fill="#D900FF" />
	<circle r="3" cx="544.315" cy="220.166" fill="#D900FF" />
	<circle r="3" cx="716.871" cy="227.799" fill="#D900FF" />
	<circle r="3" cx="919.966" cy="224.203" fill="#D900FF" />
	<circle r="3" cx="854.439" cy="393.913" fill="#D900FF" />
	<circle r="3" cx="866.908" cy="499.239" fill="#D900FF" />
	<circle r="3" cx="887.188" cy="495.541" fill="#D900FF" />
	<circle r="3" cx="818.428" cy="393.913" fill="#D900FF" />
	<circle r="3" cx="847.011" cy="497.875" fill="#D900FF" />
	<circle r="3" cx="814.628" cy="494.786" fill="#D900FF" />
	<circle r="3" cx="760.161" cy="393.913" fill="#D900FF" />
	<circle r="3" cx="743.213" cy="487.203" fill="#D900FF" />
	<circle r="3" cx="783.783" cy="490.029" fill="#D900FF" />
	<circle r="3" cx="701.894" cy="393.913" fill="#D900FF" />
	<circle r="3" cx="710.339" cy="488.683" fill="#D900FF" />
	<circle r="3" cx="676.451" cy="483.565" fill="#D900FF" />
	<circle r="3" cx="665.883" cy="393.913" fill="#D900FF" />
	<circle r="3" cx="653.821" cy="480.382" fill="#D900FF" />
	<circle r="3" cx="658.544" cy="480.731" fill="#D900FF" />
	<circle r="3" cx="665.883" cy="393.913" fill="#D900FF" />
	<circle r="3" cx="654.563" cy="479.138" fill="#D900FF" />
	<circle r="3" cx="658.848" cy="480.18" fill="#D900FF" />
	<circle r="3" cx="701.894" cy="393.913" fill="#D900FF" />
	<circle r="3" cx="709.964" cy="493.563" fill="#D900FF" />
	<circle r="3" cx="674.137" cy="487.449" fill="#D900FF" />
	<circle r="3" cx="760.161" cy="393.913" fill="#D900FF" />
	<circle r="3" cx="740.006" cy="497.985" fill="#D900FF" />
	<circle r="3" cx="786.524" cy="495.434" fill="#D900FF" />
	<circle r="3" cx="818.428" cy="393.913" fill="#D900FF" />
	<circle r="3" cx="844.399" cy="491.753" fill="#D900FF" />
	<circle r="3" cx="813.975" cy="493.736" fill="#D900FF" />
	<circle r="3" cx="854.439" cy="393.913" fill="#D900FF" />
	<circle r="3" cx="863.489" cy="491.366" fill="#D900FF" />
	<circle r="3" cx="885.553" cy="493.195" fill="#D900FF" />
	<circle r="3" cx="812.67" cy="304.038" fill="#D900FF" />
	<circle r="3" cx="777.341" cy="293.165" fill="#D900FF" />
	<circle r="3" cx="800.606" cy="206.912" fill="#D900FF" />
	<circle r="3" cx="669.619" cy="285.283" fill="#D900FF" />
	<circle r="3" cx="648.56" cy="288.639" fill="#D900FF" />
	<circle r="3" cx="602.398" cy="228.361" fill="#D900FF" />
	<circle r="3" cx="647.83" cy="290.692" fill="#D900FF" />
	<circle r="3" cx="669.13" cy="290.985" fill="#D900FF" />
	<circle r="3" cx="611.43" cy="220.029" fill="#D900FF" />
	<circle r="3" cx="786.601" cy="269.876" fill="#D900FF" />
	<circle r="3" cx="816.563" cy="267.879" fill="#D900FF" />
	<circle r="3" cx="832.116" cy="196.624" fill="#D900FF" />
	<circle r="3" cx="873.374" cy="296.088" fill="#D900FF" />
	<circle r="3" cx="866.801" cy="305.669" fill="#D900FF" />
	<circle r="3" cx="936.775" cy="215.192" fill="#D900FF" />
	<circle r="3" cx="629.088" cy="295.177" fill="#D900FF" />
	<circle r="3" cx="834.633" cy="312.517" fill="#D900FF" />
	<circle r="3" cx="729.825" cy="283.584" fill="#D900FF" />
	<circle r="3" cx="702.047" cy="289.255" fill="#D900FF" />
	<circle r="3" cx="702.489" cy="287.874" fill="#D900FF" />
	<circle r="3" cx="737.72" cy="288.625" fill="#D900FF" />
	<circle r="3" cx="860.504" cy="309.865" fill="#D900FF" />
	<circle r="3" cx="877.967" cy="282.555" fill="#D900FF" />
	<circle r="3" cx="865.034" cy="273.898" fill="#D900FF" />
	<circle r="3" cx="629.38" cy="296.317" fill="#D900FF" />
	<circle r="3" cx="605.042" cy="544.132" fill="#D900FF" />
	<circle r="3" cx="686.664" cy="551.086" fill="#D900FF" />
	<circle r="3" cx="714.772" cy="556.487" fill="#D900FF" />
	<circle r="3" cx="819.964" cy="567.37" fill="#D900FF" />
	<circle r="3" cx="909.598" cy="557.747" fill="#D900FF" />
	<circle r="3" cx="926.286" cy="556.441" fill="#D900FF" />
	<circle r="3" cx="837.331" cy="545.644" fill="#D900FF" />
	<circle r="3" cx="810.252" cy="546.368" fill="#D900FF" />
	<circle r="3" cx="588.239" cy="543.345" fill="#D900FF" />
	<circle r="3" cx="975.61" cy="557.705" fill="#D900FF" />
	<circle r="3" cx="975.467" cy="557.547" fill="#D900FF" />
	<circle r="3" cx="922.425" cy="548.586" fill="#D900FF" />
	<circle r="3" cx="901.696" cy="546.336" fill="#D900FF" />
	<circle r="3" cx="719.026" cy="545.544" fill="#D900FF" />
	<circle r="3" cx="687.058" cy="544.897" fill="#D900FF" />
	<circle r="3" cx="587.28" cy="544.903" fill="#D900FF" />
	<circle r="3" cx="575.433" cy="544.216" fill="#D900FF" />
	<circle r="3" cx="575.829" cy="543.675" fill="#D900FF" />
	<circle r="3" cx="839.255" cy="566.01" fill="#D900FF" />
	<circle r="3" cx="604.498" cy="544.777" fill="#D900FF" />
	<circle r="3" cx="690.294" cy="717.575" fill="#D900FF" />
	<circle r="3" cx="765.098" cy="716.464" fill="#D900FF" />
	<circle r="3" cx="692.99" cy="718.293" fill="#D900FF" />
	<circle r="3" cx="644.603" cy="745.083" fill="#D900FF" />
	<circle r="3" cx="719.407" cy="752.009" fill="#D900FF" />
	<circle r="3" cx="613.16" cy="759.915" fill="#D900FF" />
	<circle r="3" cx="561.971" cy="747.964" fill="#D900FF" />
	<circle r="3" cx="623.402" cy="753.652" fill="#D900FF" />
	<circle r="3" cx="536.149" cy="760.145" fill="#D900FF" />
</svg>