<svg height="900" width="1600" xmlns="http://www.w3.org/2000/svg">
	<polygon points="765.188,438.89 791.035,417.278 777.725,404.502 754.309,423.782 " style="stroke:black;stroke-width:3" fill-opacity="0.1"/>
	<polygon points="754.309,423.782 777.725,404.502 772.518,395.79 754.494,410.506 " style="stroke:black;stroke-width:3" fill-opacity="0.1"/>
	<polygon points="754.494,410.506 772.518,395.79 778.609,396.076 766.036,406.376 " style="stroke:black;stroke-width:3" fill-opacity="0.1"/>
	<polygon points="766.036,406.376 778.609,396.076 793.336,405.957 783.006,414.543 " style="stroke:black;stroke-width:3" fill-opacity="0.1"/>
	<polygon points="783.006,414.543 793.336,405.957 807.937,419.846 795.049,430.74 " style="stroke:black;stroke-width:3" fill-opacity="0.1"/>
	<polygon points="795.049,430.74 807.937,419.846 812.889,428.775 794.235,444.676 " style="stroke:black;stroke-width:3" fill-opacity="0.1"/>
	<polygon points="794.235,444.676 812.889,428.775 805.509,427.377 781.529,447.717 " style="stroke:black;stroke-width:3" fill-opacity="0.1"/>
	<polygon points="781.529,447.717 805.509,427.377 791.035,417.278 765.188,438.89 " style="stroke:black;stroke-width:3" fill-opacity="0.1"/>
	<polygon points="791.035,417.278 817.888,391.017 801.671,380.694 777.725,404.502 " style="stroke:black;stroke-width:3" fill-opacity="0.1"/>
	<polygon points="777.725,404.502 801.671,380.694 790.829,377.423 772.518,395.79 " style="stroke:black;stroke-width:3" fill-opacity="0.1"/>
	<polygon points="772.518,395.79 790.829,377.423 791.465,383.232 778.609,396.076 " style="stroke:black;stroke-width:3" fill-opacity="0.1"/>
	<polygon points="778.609,396.076 791.465,383.232 804.08,395.389 793.336,405.957 " style="stroke:black;stroke-width:3" fill-opacity="0.1"/>
	<polygon points="793.336,405.957 804.08,395.389 821.575,406.671 807.937,419.846 " style="stroke:black;stroke-width:3" fill-opacity="0.1"/>
	<polygon points="807.937,419.846 821.575,406.671 832.754,409.752 812.889,428.775 " style="stroke:black;stroke-width:3" fill-opacity="0.1"/>
	<polygon points="812.889,428.775 832.754,409.752 830.841,402.986 805.509,427.377 " style="stroke:black;stroke-width:3" fill-opacity="0.1"/>
	<polygon points="805.509,427.377 830.841,402.986 817.888,391.017 791.035,417.278 " style="stroke:black;stroke-width:3" fill-opacity="0.1"/>
	<polygon points="817.888,391.017 840.618,364.948 821.364,356.941 801.671,380.694 " style="stroke:black;stroke-width:3" fill-opacity="0.1"/>
	<polygon points="801.671,380.694 821.364,356.941 805.463,359.27 790.829,377.423 " style="stroke:black;stroke-width:3" fill-opacity="0.1"/>
	<polygon points="790.829,377.423 805.463,359.27 801.62,370.775 791.465,383.232 " style="stroke:black;stroke-width:3" fill-opacity="0.1"/>
	<polygon points="791.465,383.232 801.62,370.775 812.679,385.326 804.08,395.389 " style="stroke:black;stroke-width:3" fill-opacity="0.1"/>
	<polygon points="804.08,395.389 812.679,385.326 832.828,394.205 821.575,406.671 " style="stroke:black;stroke-width:3" fill-opacity="0.1"/>
	<polygon points="821.575,406.671 832.828,394.205 849.625,391.567 832.754,409.752 " style="stroke:black;stroke-width:3" fill-opacity="0.1"/>
	<polygon points="832.754,409.752 849.625,391.567 852.573,379.189 830.841,402.986 " style="stroke:black;stroke-width:3" fill-opacity="0.1"/>
	<polygon points="830.841,402.986 852.573,379.189 840.618,364.948 817.888,391.017 " style="stroke:black;stroke-width:3" fill-opacity="0.1"/>
	<polygon points="840.618,364.948 853.611,344.915 831.815,338.67 821.364,356.941 " style="stroke:black;stroke-width:3" fill-opacity="0.1"/>
	<polygon points="821.364,356.941 831.815,338.67 812.616,345.671 805.463,359.27 " style="stroke:black;stroke-width:3" fill-opacity="0.1"/>
	<polygon points="805.463,359.27 812.616,345.671 806.4,361.811 801.62,370.775 " style="stroke:black;stroke-width:3" fill-opacity="0.1"/>
	<polygon points="801.62,370.775 806.4,361.811 816.869,378.319 812.679,385.326 " style="stroke:black;stroke-width:3" fill-opacity="0.1"/>
	<polygon points="812.679,385.326 816.869,378.319 838.773,385.568 832.828,394.205 " style="stroke:black;stroke-width:3" fill-opacity="0.1"/>
	<polygon points="832.828,394.205 838.773,385.568 859.238,378.592 849.625,391.567 " style="stroke:black;stroke-width:3" fill-opacity="0.1"/>
	<polygon points="849.625,391.567 859.238,378.592 865.346,361.448 852.573,379.189 " style="stroke:black;stroke-width:3" fill-opacity="0.1"/>
	<polygon points="852.573,379.189 865.346,361.448 853.611,344.915 840.618,364.948 " style="stroke:black;stroke-width:3" fill-opacity="0.1"/>
	<polygon points="853.611,344.915 851.525,337.468 828.668,331.724 831.815,338.67 " style="stroke:black;stroke-width:3" fill-opacity="0.1"/>
	<polygon points="831.815,338.67 828.668,331.724 809.443,340.85 812.616,345.671 " style="stroke:black;stroke-width:3" fill-opacity="0.1"/>
	<polygon points="812.616,345.671 809.443,340.85 804.074,359.041 806.4,361.811 " style="stroke:black;stroke-width:3" fill-opacity="0.1"/>
	<polygon points="806.4,361.811 804.074,359.041 815.225,376.459 816.869,378.319 " style="stroke:black;stroke-width:3" fill-opacity="0.1"/>
	<polygon points="816.869,378.319 815.225,376.459 837.351,383.413 838.773,385.568 " style="stroke:black;stroke-width:3" fill-opacity="0.1"/>
	<polygon points="838.773,385.568 837.351,383.413 858.054,375.007 859.238,378.592 " style="stroke:black;stroke-width:3" fill-opacity="0.1"/>
	<polygon points="859.238,378.592 858.054,375.007 864.154,355.606 865.346,361.448 " style="stroke:black;stroke-width:3" fill-opacity="0.1"/>
	<polygon points="865.346,361.448 864.154,355.606 851.525,337.468 853.611,344.915 " style="stroke:black;stroke-width:3" fill-opacity="0.1"/>
	<polygon points="851.525,337.468 832.094,347.464 810.595,340.235 828.668,331.724 " style="stroke:black;stroke-width:3" fill-opacity="0.1"/>
	<polygon points="828.668,331.724 810.595,340.235 795.617,347.364 809.443,340.85 " style="stroke:black;stroke-width:3" fill-opacity="0.1"/>
	<polygon points="809.443,340.85 795.617,347.364 794.729,363.786 804.074,359.041 " style="stroke:black;stroke-width:3" fill-opacity="0.1"/>
	<polygon points="804.074,359.041 794.729,363.786 807.824,380.628 815.225,376.459 " style="stroke:black;stroke-width:3" fill-opacity="0.1"/>
	<polygon points="815.225,376.459 807.824,380.628 828.337,388.936 837.351,383.413 " style="stroke:black;stroke-width:3" fill-opacity="0.1"/>
	<polygon points="837.351,383.413 828.337,388.936 844.996,383.158 858.054,375.007 " style="stroke:black;stroke-width:3" fill-opacity="0.1"/>
	<polygon points="858.054,375.007 844.996,383.158 846.874,365.657 864.154,355.606 " style="stroke:black;stroke-width:3" fill-opacity="0.1"/>
	<polygon points="864.154,355.606 846.874,365.657 832.094,347.464 851.525,337.468 " style="stroke:black;stroke-width:3" fill-opacity="0.1"/>
	<polygon points="832.094,347.464 799.881,373.771 782.063,363.15 810.595,340.235 " style="stroke:black;stroke-width:3" fill-opacity="0.1"/>
	<polygon points="810.595,340.235 782.063,363.15 774.704,364.104 795.617,347.364 " style="stroke:black;stroke-width:3" fill-opacity="0.1"/>
	<polygon points="795.617,347.364 774.704,364.104 780.816,375.041 794.729,363.786 " style="stroke:black;stroke-width:3" fill-opacity="0.1"/>
	<polygon points="794.729,363.786 780.816,375.041 796.607,389.87 807.824,380.628 " style="stroke:black;stroke-width:3" fill-opacity="0.1"/>
	<polygon points="807.824,380.628 796.607,389.87 814.042,400.911 828.337,388.936 " style="stroke:black;stroke-width:3" fill-opacity="0.1"/>
	<polygon points="828.337,388.936 814.042,400.911 823.247,401.476 844.996,383.158 " style="stroke:black;stroke-width:3" fill-opacity="0.1"/>
	<polygon points="844.996,383.158 823.247,401.476 817.522,390.121 846.874,365.657 " style="stroke:black;stroke-width:3" fill-opacity="0.1"/>
	<polygon points="846.874,365.657 817.522,390.121 799.881,373.771 832.094,347.464 " style="stroke:black;stroke-width:3" fill-opacity="0.1"/>
	<polygon points="799.881,373.771 766.283,407.357 752.905,392.822 782.063,363.15 " style="stroke:black;stroke-width:3" fill-opacity="0.1"/>
	<polygon points="782.063,363.15 752.905,392.822 753.496,385.773 774.704,364.104 " style="stroke:black;stroke-width:3" fill-opacity="0.1"/>
	<polygon points="774.704,364.104 753.496,385.773 766.595,389.417 780.816,375.041 " style="stroke:black;stroke-width:3" fill-opacity="0.1"/>
	<polygon points="780.816,375.041 766.595,389.417 784.926,401.454 796.607,389.87 " style="stroke:black;stroke-width:3" fill-opacity="0.1"/>
	<polygon points="796.607,389.87 784.926,401.454 798.855,415.706 814.042,400.911 " style="stroke:black;stroke-width:3" fill-opacity="0.1"/>
	<polygon points="814.042,400.911 798.855,415.706 799.912,424.071 823.247,401.476 " style="stroke:black;stroke-width:3" fill-opacity="0.1"/>
	<polygon points="823.247,401.476 799.912,424.071 786.264,420.713 817.522,390.121 " style="stroke:black;stroke-width:3" fill-opacity="0.1"/>
	<polygon points="817.522,390.121 786.264,420.713 766.283,407.357 799.881,373.771 " style="stroke:black;stroke-width:3" fill-opacity="0.1"/>
	<polygon points="766.283,407.357 743.23,435.979 733.147,418.754 752.905,392.822 " style="stroke:black;stroke-width:3" fill-opacity="0.1"/>
	<polygon points="752.905,392.822 733.147,418.754 738.863,405.189 753.496,385.773 " style="stroke:black;stroke-width:3" fill-opacity="0.1"/>
	<polygon points="753.496,385.773 738.863,405.189 756.417,402.449 766.595,389.417 " style="stroke:black;stroke-width:3" fill-opacity="0.1"/>
	<polygon points="766.595,389.417 756.417,402.449 776.275,411.877 784.926,401.454 " style="stroke:black;stroke-width:3" fill-opacity="0.1"/>
	<polygon points="784.926,401.454 776.275,411.877 787.462,428.705 798.855,415.706 " style="stroke:black;stroke-width:3" fill-opacity="0.1"/>
	<polygon points="798.855,415.706 787.462,428.705 782.681,443.392 799.912,424.071 " style="stroke:black;stroke-width:3" fill-opacity="0.1"/>
	<polygon points="799.912,424.071 782.681,443.392 764.023,446.53 786.264,420.713 " style="stroke:black;stroke-width:3" fill-opacity="0.1"/>
	<polygon points="786.264,420.713 764.023,446.53 743.23,435.979 766.283,407.357 " style="stroke:black;stroke-width:3" fill-opacity="0.1"/>
	<polygon points="743.23,435.979 736.55,451.341 727.777,433.403 733.147,418.754 " style="stroke:black;stroke-width:3" fill-opacity="0.1"/>
	<polygon points="733.147,418.754 727.777,433.403 734.586,416.767 738.863,405.189 " style="stroke:black;stroke-width:3" fill-opacity="0.1"/>
	<polygon points="738.863,405.189 734.586,416.767 752.974,410.46 756.417,402.449 " style="stroke:black;stroke-width:3" fill-opacity="0.1"/>
	<polygon points="756.417,402.449 752.974,410.46 772.971,418.229 776.275,411.877 " style="stroke:black;stroke-width:3" fill-opacity="0.1"/>
	<polygon points="776.275,411.877 772.971,418.229 782.921,436.263 787.462,428.705 " style="stroke:black;stroke-width:3" fill-opacity="0.1"/>
	<polygon points="787.462,428.705 782.921,436.263 776.15,453.956 782.681,443.392 " style="stroke:black;stroke-width:3" fill-opacity="0.1"/>
	<polygon points="782.681,443.392 776.15,453.956 756.585,460.167 764.023,446.53 " style="stroke:black;stroke-width:3" fill-opacity="0.1"/>
	<polygon points="764.023,446.53 756.585,460.167 736.55,451.341 743.23,435.979 " style="stroke:black;stroke-width:3" fill-opacity="0.1"/>
	<polygon points="736.55,451.341 745.326,451.54 736.105,434.535 727.777,433.403 " style="stroke:black;stroke-width:3" fill-opacity="0.1"/>
	<polygon points="727.777,433.403 736.105,434.535 740.647,418.302 734.586,416.767 " style="stroke:black;stroke-width:3" fill-opacity="0.1"/>
	<polygon points="734.586,416.767 740.647,418.302 756.662,411.701 752.974,410.46 " style="stroke:black;stroke-width:3" fill-opacity="0.1"/>
	<polygon points="752.974,410.46 756.662,411.701 775.552,419.073 772.971,418.229 " style="stroke:black;stroke-width:3" fill-opacity="0.1"/>
	<polygon points="772.971,418.229 775.552,419.073 785.889,436.802 782.921,436.263 " style="stroke:black;stroke-width:3" fill-opacity="0.1"/>
	<polygon points="782.921,436.263 785.889,436.802 780.789,453.987 776.15,453.956 " style="stroke:black;stroke-width:3" fill-opacity="0.1"/>
	<polygon points="776.15,453.956 780.789,453.987 763.66,459.864 756.585,460.167 " style="stroke:black;stroke-width:3" fill-opacity="0.1"/>
	<polygon points="756.585,460.167 763.66,459.864 745.326,451.54 736.55,451.341 " style="stroke:black;stroke-width:3" fill-opacity="0.1"/>
	<polygon points="745.326,451.54 765.188,438.89 754.309,423.782 736.105,434.535 " style="stroke:black;stroke-width:3" fill-opacity="0.1"/>
	<polygon points="736.105,434.535 754.309,423.782 754.494,410.506 740.647,418.302 " style="stroke:black;stroke-width:3" fill-opacity="0.1"/>
	<polygon points="740.647,418.302 754.494,410.506 766.036,406.376 756.662,411.701 " style="stroke:black;stroke-width:3" fill-opacity="0.1"/>
	<polygon points="756.662,411.701 766.036,406.376 783.006,414.543 775.552,419.073 " style="stroke:black;stroke-width:3" fill-opacity="0.1"/>
	<polygon points="775.552,419.073 783.006,414.543 795.049,430.74 785.889,436.802 " style="stroke:black;stroke-width:3" fill-opacity="0.1"/>
	<polygon points="785.889,436.802 795.049,430.74 794.235,444.676 780.789,453.987 " style="stroke:black;stroke-width:3" fill-opacity="0.1"/>
	<polygon points="780.789,453.987 794.235,444.676 781.529,447.717 763.66,459.864 " style="stroke:black;stroke-width:3" fill-opacity="0.1"/>
	<polygon points="763.66,459.864 781.529,447.717 765.188,438.89 745.326,451.54 " style="stroke:black;stroke-width:3" fill-opacity="0.1"/>
	<polygon points="828.06,284.161 784.955,270.331 789.793,267.356 830.437,280.257 " style="stroke:black;stroke-width:3" fill-opacity="0.1"/>
	<polygon points="830.437,280.257 789.793,267.356 802.22,254.159 833.948,263.821 " style="stroke:black;stroke-width:3" fill-opacity="0.1"/>
	<polygon points="833.948,263.821 802.22,254.159 814.728,238.56 836.377,244.84 " style="stroke:black;stroke-width:3" fill-opacity="0.1"/>
	<polygon points="836.377,244.84 814.728,238.56 819.182,230.685 836.178,235.5 " style="stroke:black;stroke-width:3" fill-opacity="0.1"/>
	<polygon points="836.178,235.5 819.182,230.685 813.27,234.974 833.634,240.833 " style="stroke:black;stroke-width:3" fill-opacity="0.1"/>
	<polygon points="833.634,240.833 813.27,234.974 801.202,247.988 830.343,256.734 " style="stroke:black;stroke-width:3" fill-opacity="0.1"/>
	<polygon points="830.343,256.734 801.202,247.988 789.769,262.272 828.081,274.285 " style="stroke:black;stroke-width:3" fill-opacity="0.1"/>
	<polygon points="828.081,274.285 789.769,262.272 784.955,270.331 828.06,284.161 " style="stroke:black;stroke-width:3" fill-opacity="0.1"/>
	<polygon points="784.955,270.331 757.621,241.066 763.986,239.826 789.793,267.356 " style="stroke:black;stroke-width:3" fill-opacity="0.1"/>
	<polygon points="789.793,267.356 763.986,239.826 781.951,232.791 802.22,254.159 " style="stroke:black;stroke-width:3" fill-opacity="0.1"/>
	<polygon points="802.22,254.159 781.951,232.791 800.798,224.064 814.728,238.56 " style="stroke:black;stroke-width:3" fill-opacity="0.1"/>
	<polygon points="814.728,238.56 800.798,224.064 808.206,219.328 819.182,230.685 " style="stroke:black;stroke-width:3" fill-opacity="0.1"/>
	<polygon points="819.182,230.685 808.206,219.328 800.145,221.328 813.27,234.974 " style="stroke:black;stroke-width:3" fill-opacity="0.1"/>
	<polygon points="813.27,234.974 800.145,221.328 782.532,228.351 801.202,247.988 " style="stroke:black;stroke-width:3" fill-opacity="0.1"/>
	<polygon points="801.202,247.988 782.532,228.351 765.384,236.318 789.769,262.272 " style="stroke:black;stroke-width:3" fill-opacity="0.1"/>
	<polygon points="789.769,262.272 765.384,236.318 757.621,241.066 784.955,270.331 " style="stroke:black;stroke-width:3" fill-opacity="0.1"/>
	<polygon points="757.621,241.066 751.172,203.006 757.968,203.982 763.986,239.826 " style="stroke:black;stroke-width:3" fill-opacity="0.1"/>
	<polygon points="763.986,239.826 757.968,203.982 777.377,204.812 781.951,232.791 " style="stroke:black;stroke-width:3" fill-opacity="0.1"/>
	<polygon points="781.951,232.791 777.377,204.812 797.762,204.949 800.798,224.064 " style="stroke:black;stroke-width:3" fill-opacity="0.1"/>
	<polygon points="800.798,224.064 797.762,204.949 805.846,204.295 808.206,219.328 " style="stroke:black;stroke-width:3" fill-opacity="0.1"/>
	<polygon points="808.206,219.328 805.846,204.295 797.28,203.298 800.145,221.328 " style="stroke:black;stroke-width:3" fill-opacity="0.1"/>
	<polygon points="800.145,221.328 797.28,203.298 778.322,202.552 782.532,228.351 " style="stroke:black;stroke-width:3" fill-opacity="0.1"/>
	<polygon points="782.532,228.351 778.322,202.552 759.711,202.437 765.384,236.318 " style="stroke:black;stroke-width:3" fill-opacity="0.1"/>
	<polygon points="765.384,236.318 759.711,202.437 751.172,203.006 757.621,241.066 " style="stroke:black;stroke-width:3" fill-opacity="0.1"/>
	<polygon points="751.172,203.006 767.497,164.03 773.498,167.376 757.968,203.982 " style="stroke:black;stroke-width:3" fill-opacity="0.1"/>
	<polygon points="757.968,203.982 773.498,167.376 789.821,176.473 777.377,204.812 " style="stroke:black;stroke-width:3" fill-opacity="0.1"/>
	<polygon points="777.377,204.812 789.821,176.473 806.484,185.759 797.762,204.949 " style="stroke:black;stroke-width:3" fill-opacity="0.1"/>
	<polygon points="797.762,204.949 806.484,185.759 812.768,189.26 805.846,204.295 " style="stroke:black;stroke-width:3" fill-opacity="0.1"/>
	<polygon points="805.846,204.295 812.768,189.26 805.488,185.201 797.28,203.298 " style="stroke:black;stroke-width:3" fill-opacity="0.1"/>
	<polygon points="797.28,203.298 805.488,185.201 789.783,176.448 778.322,202.552 " style="stroke:black;stroke-width:3" fill-opacity="0.1"/>
	<polygon points="778.322,202.552 789.783,176.448 774.401,167.876 759.711,202.437 " style="stroke:black;stroke-width:3" fill-opacity="0.1"/>
	<polygon points="759.711,202.437 774.401,167.876 767.497,164.03 751.172,203.006 " style="stroke:black;stroke-width:3" fill-opacity="0.1"/>
	<polygon points="767.497,164.03 804.698,133.131 808.615,138.546 773.498,167.376 " style="stroke:black;stroke-width:3" fill-opacity="0.1"/>
	<polygon points="773.498,167.376 808.615,138.546 817.287,154.628 789.821,176.473 " style="stroke:black;stroke-width:3" fill-opacity="0.1"/>
	<polygon points="789.821,176.473 817.287,154.628 825.248,171.307 806.484,185.759 " style="stroke:black;stroke-width:3" fill-opacity="0.1"/>
	<polygon points="806.484,185.759 825.248,171.307 827.499,178.05 812.768,189.26 " style="stroke:black;stroke-width:3" fill-opacity="0.1"/>
	<polygon points="812.768,189.26 827.499,178.05 823.12,171.595 805.488,185.201 " style="stroke:black;stroke-width:3" fill-opacity="0.1"/>
	<polygon points="805.488,185.201 823.12,171.595 814.976,156.409 789.783,176.448 " style="stroke:black;stroke-width:3" fill-opacity="0.1"/>
	<polygon points="789.783,176.448 814.976,156.409 807.476,140.771 774.401,167.876 " style="stroke:black;stroke-width:3" fill-opacity="0.1"/>
	<polygon points="774.401,167.876 807.476,140.771 804.698,133.131 767.497,164.03 " style="stroke:black;stroke-width:3" fill-opacity="0.1"/>
	<polygon points="804.698,133.131 855.534,119.479 856.304,126.023 808.615,138.546 " style="stroke:black;stroke-width:3" fill-opacity="0.1"/>
	<polygon points="808.615,138.546 856.304,126.023 853.811,145.647 817.287,154.628 " style="stroke:black;stroke-width:3" fill-opacity="0.1"/>
	<polygon points="817.287,154.628 853.811,145.647 849.646,165.719 825.248,171.307 " style="stroke:black;stroke-width:3" fill-opacity="0.1"/>
	<polygon points="825.248,171.307 849.646,165.719 846.467,173.83 827.499,178.05 " style="stroke:black;stroke-width:3" fill-opacity="0.1"/>
	<polygon points="827.499,178.05 846.467,173.83 845.999,166.35 823.12,171.595 " style="stroke:black;stroke-width:3" fill-opacity="0.1"/>
	<polygon points="823.12,171.595 845.999,166.35 848.317,148.248 814.976,156.409 " style="stroke:black;stroke-width:3" fill-opacity="0.1"/>
	<polygon points="814.976,156.409 848.317,148.248 852.181,129.11 807.476,140.771 " style="stroke:black;stroke-width:3" fill-opacity="0.1"/>
	<polygon points="807.476,140.771 852.181,129.11 855.534,119.479 804.698,133.131 " style="stroke:black;stroke-width:3" fill-opacity="0.1"/>
	<polygon points="855.534,119.479 906.578,129.455 903.925,135.55 856.304,126.023 " style="stroke:black;stroke-width:3" fill-opacity="0.1"/>
	<polygon points="856.304,126.023 903.925,135.55 889.636,153.336 853.811,145.647 " style="stroke:black;stroke-width:3" fill-opacity="0.1"/>
	<polygon points="853.811,145.647 889.636,153.336 873.129,171.116 849.646,165.719 " style="stroke:black;stroke-width:3" fill-opacity="0.1"/>
	<polygon points="849.646,165.719 873.129,171.116 864.574,178.108 846.467,173.83 " style="stroke:black;stroke-width:3" fill-opacity="0.1"/>
	<polygon points="846.467,173.83 864.574,178.108 867.979,171.426 845.999,166.35 " style="stroke:black;stroke-width:3" fill-opacity="0.1"/>
	<polygon points="845.999,166.35 867.979,171.426 880.886,155.327 848.317,148.248 " style="stroke:black;stroke-width:3" fill-opacity="0.1"/>
	<polygon points="848.317,148.248 880.886,155.327 896.643,138.131 852.181,129.11 " style="stroke:black;stroke-width:3" fill-opacity="0.1"/>
	<polygon points="852.181,129.11 896.643,138.131 906.578,129.455 855.534,119.479 " style="stroke:black;stroke-width:3" fill-opacity="0.1"/>
	<polygon points="906.578,129.455 941.124,162.208 936.066,166.147 903.925,135.55 " style="stroke:black;stroke-width:3" fill-opacity="0.1"/>
	<polygon points="903.925,135.55 936.066,166.147 913.615,176.507 889.636,153.336 " style="stroke:black;stroke-width:3" fill-opacity="0.1"/>
	<polygon points="889.636,153.336 913.615,176.507 888.717,186.42 873.129,171.116 " style="stroke:black;stroke-width:3" fill-opacity="0.1"/>
	<polygon points="873.129,171.116 888.717,186.42 876.555,189.956 864.574,178.108 " style="stroke:black;stroke-width:3" fill-opacity="0.1"/>
	<polygon points="864.574,178.108 876.555,189.956 882.568,185.785 867.979,171.426 " style="stroke:black;stroke-width:3" fill-opacity="0.1"/>
	<polygon points="867.979,171.426 882.568,185.785 902.665,176.476 880.886,155.327 " style="stroke:black;stroke-width:3" fill-opacity="0.1"/>
	<polygon points="880.886,155.327 902.665,176.476 926.613,166.792 896.643,138.131 " style="stroke:black;stroke-width:3" fill-opacity="0.1"/>
	<polygon points="896.643,138.131 926.613,166.792 941.124,162.208 906.578,129.455 " style="stroke:black;stroke-width:3" fill-opacity="0.1"/>
	<polygon points="941.124,162.208 946.787,207.617 941.393,208.437 936.066,166.147 " style="stroke:black;stroke-width:3" fill-opacity="0.1"/>
	<polygon points="936.066,166.147 941.393,208.437 917.788,208.265 913.615,176.507 " style="stroke:black;stroke-width:3" fill-opacity="0.1"/>
	<polygon points="913.615,176.507 917.788,208.265 891.575,207.227 888.717,186.42 " style="stroke:black;stroke-width:3" fill-opacity="0.1"/>
	<polygon points="888.717,186.42 891.575,207.227 878.807,206.015 876.555,189.956 " style="stroke:black;stroke-width:3" fill-opacity="0.1"/>
	<polygon points="876.555,189.956 878.807,206.015 885.278,205.313 882.568,185.785 " style="stroke:black;stroke-width:3" fill-opacity="0.1"/>
	<polygon points="882.568,185.785 885.278,205.313 906.544,205.454 902.665,176.476 " style="stroke:black;stroke-width:3" fill-opacity="0.1"/>
	<polygon points="902.665,176.476 906.544,205.454 931.685,206.376 926.613,166.792 " style="stroke:black;stroke-width:3" fill-opacity="0.1"/>
	<polygon points="926.613,166.792 931.685,206.376 946.787,207.617 941.124,162.208 " style="stroke:black;stroke-width:3" fill-opacity="0.1"/>
	<polygon points="946.787,207.617 922.493,250.409 918.861,248.386 941.393,208.437 " style="stroke:black;stroke-width:3" fill-opacity="0.1"/>
	<polygon points="941.393,208.437 918.861,248.386 901.239,238.567 917.788,208.265 " style="stroke:black;stroke-width:3" fill-opacity="0.1"/>
	<polygon points="917.788,208.265 901.239,238.567 881.019,227.297 891.575,207.227 " style="stroke:black;stroke-width:3" fill-opacity="0.1"/>
	<polygon points="891.575,207.227 881.019,227.297 870.775,221.586 878.807,206.015 " style="stroke:black;stroke-width:3" fill-opacity="0.1"/>
	<polygon points="878.807,206.015 870.775,221.586 875.452,224.192 885.278,205.313 " style="stroke:black;stroke-width:3" fill-opacity="0.1"/>
	<polygon points="885.278,205.313 875.452,224.192 891.649,233.217 906.544,205.454 " style="stroke:black;stroke-width:3" fill-opacity="0.1"/>
	<polygon points="906.544,205.454 891.649,233.217 910.826,243.905 931.685,206.376 " style="stroke:black;stroke-width:3" fill-opacity="0.1"/>
	<polygon points="931.685,206.376 910.826,243.905 922.493,250.409 946.787,207.617 " style="stroke:black;stroke-width:3" fill-opacity="0.1"/>
	<polygon points="922.493,250.409 878.14,277.814 877.457,274.144 918.861,248.386 " style="stroke:black;stroke-width:3" fill-opacity="0.1"/>
	<polygon points="918.861,248.386 877.457,274.144 870.078,258.606 901.239,238.567 " style="stroke:black;stroke-width:3" fill-opacity="0.1"/>
	<polygon points="901.239,238.567 870.078,258.606 860.6,240.94 881.019,227.297 " style="stroke:black;stroke-width:3" fill-opacity="0.1"/>
	<polygon points="881.019,227.297 860.6,240.94 855.04,232.305 870.775,221.586 " style="stroke:black;stroke-width:3" fill-opacity="0.1"/>
	<polygon points="870.775,221.586 855.04,232.305 856.359,237.084 875.452,224.192 " style="stroke:black;stroke-width:3" fill-opacity="0.1"/>
	<polygon points="875.452,224.192 856.359,237.084 863.359,251.743 891.649,233.217 " style="stroke:black;stroke-width:3" fill-opacity="0.1"/>
	<polygon points="891.649,233.217 863.359,251.743 872.202,268.3 910.826,243.905 " style="stroke:black;stroke-width:3" fill-opacity="0.1"/>
	<polygon points="910.826,243.905 872.202,268.3 878.14,277.814 922.493,250.409 " style="stroke:black;stroke-width:3" fill-opacity="0.1"/>
	<polygon points="878.14,277.814 828.06,284.161 830.437,280.257 877.457,274.144 " style="stroke:black;stroke-width:3" fill-opacity="0.1"/>
	<polygon points="877.457,274.144 830.437,280.257 833.948,263.821 870.078,258.606 " style="stroke:black;stroke-width:3" fill-opacity="0.1"/>
	<polygon points="870.078,258.606 833.948,263.821 836.377,244.84 860.6,240.94 " style="stroke:black;stroke-width:3" fill-opacity="0.1"/>
	<polygon points="860.6,240.94 836.377,244.84 836.178,235.5 855.04,232.305 " style="stroke:black;stroke-width:3" fill-opacity="0.1"/>
	<polygon points="855.04,232.305 836.178,235.5 833.634,240.833 856.359,237.084 " style="stroke:black;stroke-width:3" fill-opacity="0.1"/>
	<polygon points="856.359,237.084 833.634,240.833 830.343,256.734 863.359,251.743 " style="stroke:black;stroke-width:3" fill-opacity="0.1"/>
	<polygon points="863.359,251.743 830.343,256.734 828.081,274.285 872.202,268.3 " style="stroke:black;stroke-width:3" fill-opacity="0.1"/>
	<polygon points="872.202,268.3 828.081,274.285 828.06,284.161 878.14,277.814 " style="stroke:black;stroke-width:3" fill-opacity="0.1"/>
	<polygon points="1147.26,559.582 1041.76,562.301 1038.08,533.316 1134.2,528.877 " style="stroke:black;stroke-width:3" fill-opacity="0.1"/>
	<polygon points="1134.2,528.877 1038.08,533.316 1030.31,497.567 1099.44,492.613 " style="stroke:black;stroke-width:3" fill-opacity="0.1"/>
	<polygon points="1099.44,492.613 1030.31,497.567 1023.68,478.275 1067.39,474.53 " style="stroke:black;stroke-width:3" fill-opacity="0.1"/>
	<polygon points="1067.39,474.53 1023.68,478.275 1021.84,484.639 1055.31,481.92 " style="stroke:black;stroke-width:3" fill-opacity="0.1"/>
	<polygon points="1055.31,481.92 1021.84,484.639 1025.29,510.952 1066.83,508.358 " style="stroke:black;stroke-width:3" fill-opacity="0.1"/>
	<polygon points="1066.83,508.358 1025.29,510.952 1032.17,543.577 1096.22,541.07 " style="stroke:black;stroke-width:3" fill-opacity="0.1"/>
	<polygon points="1096.22,541.07 1032.17,543.577 1039.04,565.538 1129.81,563.401 " style="stroke:black;stroke-width:3" fill-opacity="0.1"/>
	<polygon points="1129.81,563.401 1039.04,565.538 1041.76,562.301 1147.26,559.582 " style="stroke:black;stroke-width:3" fill-opacity="0.1"/>
	<polygon points="1041.76,562.301 945.266,531.43 949.003,507.508 1038.08,533.316 " style="stroke:black;stroke-width:3" fill-opacity="0.1"/>
	<polygon points="1038.08,533.316 949.003,507.508 963.602,480.685 1030.31,497.567 " style="stroke:black;stroke-width:3" fill-opacity="0.1"/>
	<polygon points="1030.31,497.567 963.602,480.685 979.741,468.01 1023.68,478.275 " style="stroke:black;stroke-width:3" fill-opacity="0.1"/>
	<polygon points="1023.68,478.275 979.741,468.01 987.608,476.385 1021.84,484.639 " style="stroke:black;stroke-width:3" fill-opacity="0.1"/>
	<polygon points="1021.84,484.639 987.608,476.385 983.341,499.66 1025.29,510.952 " style="stroke:black;stroke-width:3" fill-opacity="0.1"/>
	<polygon points="1025.29,510.952 983.341,499.66 969.777,524.683 1032.17,543.577 " style="stroke:black;stroke-width:3" fill-opacity="0.1"/>
	<polygon points="1032.17,543.577 969.777,524.683 954.167,538.006 1039.04,565.538 " style="stroke:black;stroke-width:3" fill-opacity="0.1"/>
	<polygon points="1039.04,565.538 954.167,538.006 945.266,531.43 1041.76,562.301 " style="stroke:black;stroke-width:3" fill-opacity="0.1"/>
	<polygon points="945.266,531.43 884.81,484.907 892.164,466.432 949.003,507.508 " style="stroke:black;stroke-width:3" fill-opacity="0.1"/>
	<polygon points="949.003,507.508 892.164,466.432 918.478,450.951 963.602,480.685 " style="stroke:black;stroke-width:3" fill-opacity="0.1"/>
	<polygon points="963.602,480.685 918.478,450.951 948.163,448.423 979.741,468.01 " style="stroke:black;stroke-width:3" fill-opacity="0.1"/>
	<polygon points="979.741,468.01 948.163,448.423 962.345,460.57 987.608,476.385 " style="stroke:black;stroke-width:3" fill-opacity="0.1"/>
	<polygon points="987.608,476.385 962.345,460.57 952.993,479.364 983.341,499.66 " style="stroke:black;stroke-width:3" fill-opacity="0.1"/>
	<polygon points="983.341,499.66 952.993,479.364 926.995,493.61 969.777,524.683 " style="stroke:black;stroke-width:3" fill-opacity="0.1"/>
	<polygon points="969.777,524.683 926.995,493.61 899.311,495.819 954.167,538.006 " style="stroke:black;stroke-width:3" fill-opacity="0.1"/>
	<polygon points="954.167,538.006 899.311,495.819 884.81,484.907 945.266,531.43 " style="stroke:black;stroke-width:3" fill-opacity="0.1"/>
	<polygon points="884.81,484.907 864.674,437.584 872.675,423.434 892.164,466.432 " style="stroke:black;stroke-width:3" fill-opacity="0.1"/>
	<polygon points="892.164,466.432 872.675,423.434 901.494,418.022 918.478,450.951 " style="stroke:black;stroke-width:3" fill-opacity="0.1"/>
	<polygon points="918.478,450.951 901.494,418.022 935.088,425.654 948.163,448.423 " style="stroke:black;stroke-width:3" fill-opacity="0.1"/>
	<polygon points="948.163,448.423 935.088,425.654 951.441,442.01 962.345,460.57 " style="stroke:black;stroke-width:3" fill-opacity="0.1"/>
	<polygon points="962.345,460.57 951.441,442.01 940.279,456.298 952.993,479.364 " style="stroke:black;stroke-width:3" fill-opacity="0.1"/>
	<polygon points="952.993,479.364 940.279,456.298 910.503,460.114 926.995,493.61 " style="stroke:black;stroke-width:3" fill-opacity="0.1"/>
	<polygon points="926.995,493.61 910.503,460.114 880.069,452.342 899.311,495.819 " style="stroke:black;stroke-width:3" fill-opacity="0.1"/>
	<polygon points="899.311,495.819 880.069,452.342 864.674,437.584 884.81,484.907 " style="stroke:black;stroke-width:3" fill-opacity="0.1"/>
	<polygon points="864.674,437.584 879.557,397.819 886.353,386.583 872.675,423.434 " style="stroke:black;stroke-width:3" fill-opacity="0.1"/>
	<polygon points="872.675,423.434 886.353,386.583 911.4,388.9 901.494,418.022 " style="stroke:black;stroke-width:3" fill-opacity="0.1"/>
	<polygon points="901.494,418.022 911.4,388.9 941.249,405.03 935.088,425.654 " style="stroke:black;stroke-width:3" fill-opacity="0.1"/>
	<polygon points="935.088,425.654 941.249,405.03 956.064,425.186 951.441,442.01 " style="stroke:black;stroke-width:3" fill-opacity="0.1"/>
	<polygon points="951.441,442.01 956.064,425.186 946.064,435.844 940.279,456.298 " style="stroke:black;stroke-width:3" fill-opacity="0.1"/>
	<polygon points="940.279,456.298 946.064,435.844 919.565,431.296 910.503,460.114 " style="stroke:black;stroke-width:3" fill-opacity="0.1"/>
	<polygon points="910.503,460.114 919.565,431.296 892.918,415.737 880.069,452.342 " style="stroke:black;stroke-width:3" fill-opacity="0.1"/>
	<polygon points="880.069,452.342 892.918,415.737 879.557,397.819 864.674,437.584 " style="stroke:black;stroke-width:3" fill-opacity="0.1"/>
	<polygon points="879.557,397.819 923.07,370.242 927.34,360.594 886.353,386.583 " style="stroke:black;stroke-width:3" fill-opacity="0.1"/>
	<polygon points="886.353,386.583 927.34,360.594 944.017,368.244 911.4,388.9 " style="stroke:black;stroke-width:3" fill-opacity="0.1"/>
	<polygon points="911.4,388.9 944.017,368.244 964.165,390.552 941.249,405.03 " style="stroke:black;stroke-width:3" fill-opacity="0.1"/>
	<polygon points="941.249,405.03 964.165,390.552 974.422,413.61 956.064,425.186 " style="stroke:black;stroke-width:3" fill-opacity="0.1"/>
	<polygon points="956.064,425.186 974.422,413.61 968.025,422.001 946.064,435.844 " style="stroke:black;stroke-width:3" fill-opacity="0.1"/>
	<polygon points="946.064,435.844 968.025,422.001 950.353,411.861 919.565,431.296 " style="stroke:black;stroke-width:3" fill-opacity="0.1"/>
	<polygon points="919.565,431.296 950.353,411.861 932.331,390.803 892.918,415.737 " style="stroke:black;stroke-width:3" fill-opacity="0.1"/>
	<polygon points="892.918,415.737 932.331,390.803 923.07,370.242 879.557,397.819 " style="stroke:black;stroke-width:3" fill-opacity="0.1"/>
	<polygon points="923.07,370.242 989.505,358.632 989.919,349.235 927.34,360.594 " style="stroke:black;stroke-width:3" fill-opacity="0.1"/>
	<polygon points="927.34,360.594 989.919,349.235 993.907,359.588 944.017,368.244 " style="stroke:black;stroke-width:3" fill-opacity="0.1"/>
	<polygon points="944.017,368.244 993.907,359.588 999.309,385.126 964.165,390.552 " style="stroke:black;stroke-width:3" fill-opacity="0.1"/>
	<polygon points="964.165,390.552 999.309,385.126 1002.63,409.767 974.422,413.61 " style="stroke:black;stroke-width:3" fill-opacity="0.1"/>
	<polygon points="974.422,413.61 1002.63,409.767 1001.76,417.591 968.025,422.001 " style="stroke:black;stroke-width:3" fill-opacity="0.1"/>
	<polygon points="968.025,422.001 1001.76,417.591 997.553,405.25 950.353,411.861 " style="stroke:black;stroke-width:3" fill-opacity="0.1"/>
	<polygon points="950.353,411.861 997.553,405.25 992.606,381.284 932.331,390.803 " style="stroke:black;stroke-width:3" fill-opacity="0.1"/>
	<polygon points="932.331,390.803 992.606,381.284 989.505,358.632 923.07,370.242 " style="stroke:black;stroke-width:3" fill-opacity="0.1"/>
	<polygon points="989.505,358.632 1071.52,367.303 1066.52,356.505 989.919,349.235 " style="stroke:black;stroke-width:3" fill-opacity="0.1"/>
	<polygon points="989.919,349.235 1066.52,356.505 1053.37,365.908 993.907,359.588 " style="stroke:black;stroke-width:3" fill-opacity="0.1"/>
	<polygon points="993.907,359.588 1053.37,365.908 1039.98,390.6 999.309,385.126 " style="stroke:black;stroke-width:3" fill-opacity="0.1"/>
	<polygon points="999.309,385.126 1039.98,390.6 1034.84,414.982 1002.63,409.767 " style="stroke:black;stroke-width:3" fill-opacity="0.1"/>
	<polygon points="1002.63,409.767 1034.84,414.982 1040.72,424.248 1001.76,417.591 " style="stroke:black;stroke-width:3" fill-opacity="0.1"/>
	<polygon points="1001.76,417.591 1040.72,424.248 1053.56,414.081 997.553,405.25 " style="stroke:black;stroke-width:3" fill-opacity="0.1"/>
	<polygon points="997.553,405.25 1053.56,414.081 1066.07,390.923 992.606,381.284 " style="stroke:black;stroke-width:3" fill-opacity="0.1"/>
	<polygon points="992.606,381.284 1066.07,390.923 1071.52,367.303 989.505,358.632 " style="stroke:black;stroke-width:3" fill-opacity="0.1"/>
	<polygon points="1071.52,367.303 1154.95,400.114 1143.23,385.691 1066.52,356.505 " style="stroke:black;stroke-width:3" fill-opacity="0.1"/>
	<polygon points="1066.52,356.505 1143.23,385.691 1110.09,388.696 1053.37,365.908 " style="stroke:black;stroke-width:3" fill-opacity="0.1"/>
	<polygon points="1053.37,365.908 1110.09,388.696 1076.79,407.057 1039.98,390.6 " style="stroke:black;stroke-width:3" fill-opacity="0.1"/>
	<polygon points="1039.98,390.6 1076.79,407.057 1063.33,428.873 1034.84,414.982 " style="stroke:black;stroke-width:3" fill-opacity="0.1"/>
	<polygon points="1034.84,414.982 1063.33,428.873 1075.83,441.709 1040.72,424.248 " style="stroke:black;stroke-width:3" fill-opacity="0.1"/>
	<polygon points="1040.72,424.248 1075.83,441.709 1106.49,439.113 1053.56,414.081 " style="stroke:black;stroke-width:3" fill-opacity="0.1"/>
	<polygon points="1053.56,414.081 1106.49,439.113 1139.02,422.338 1066.07,390.923 " style="stroke:black;stroke-width:3" fill-opacity="0.1"/>
	<polygon points="1066.07,390.923 1139.02,422.338 1154.95,400.114 1071.52,367.303 " style="stroke:black;stroke-width:3" fill-opacity="0.1"/>
	<polygon points="1154.95,400.114 1213.57,455.378 1195.83,434.926 1143.23,385.691 " style="stroke:black;stroke-width:3" fill-opacity="0.1"/>
	<polygon points="1143.23,385.691 1195.83,434.926 1146.18,425.102 1110.09,388.696 " style="stroke:black;stroke-width:3" fill-opacity="0.1"/>
	<polygon points="1110.09,388.696 1146.18,425.102 1098.41,431.462 1076.79,407.057 " style="stroke:black;stroke-width:3" fill-opacity="0.1"/>
	<polygon points="1076.79,407.057 1098.41,431.462 1079.49,448.54 1063.33,428.873 " style="stroke:black;stroke-width:3" fill-opacity="0.1"/>
	<polygon points="1063.33,428.873 1079.49,448.54 1096.33,466.551 1075.83,441.709 " style="stroke:black;stroke-width:3" fill-opacity="0.1"/>
	<polygon points="1075.83,441.709 1096.33,466.551 1139.73,476.525 1106.49,439.113 " style="stroke:black;stroke-width:3" fill-opacity="0.1"/>
	<polygon points="1106.49,439.113 1139.73,476.525 1188.39,472.6 1139.02,422.338 " style="stroke:black;stroke-width:3" fill-opacity="0.1"/>
	<polygon points="1139.02,422.338 1188.39,472.6 1213.57,455.378 1154.95,400.114 " style="stroke:black;stroke-width:3" fill-opacity="0.1"/>
	<polygon points="1213.57,455.378 1214.8,517.734 1195.83,490.58 1195.83,434.926 " style="stroke:black;stroke-width:3" fill-opacity="0.1"/>
	<polygon points="1195.83,434.926 1195.83,490.58 1143.91,464.87 1146.18,425.102 " style="stroke:black;stroke-width:3" fill-opacity="0.1"/>
	<polygon points="1146.18,425.102 1143.91,464.87 1095.59,456.894 1098.41,431.462 " style="stroke:black;stroke-width:3" fill-opacity="0.1"/>
	<polygon points="1098.41,431.462 1095.59,456.894 1076.9,468.41 1079.49,448.54 " style="stroke:black;stroke-width:3" fill-opacity="0.1"/>
	<polygon points="1079.49,448.54 1076.9,468.41 1093.6,491.657 1096.33,466.551 " style="stroke:black;stroke-width:3" fill-opacity="0.1"/>
	<polygon points="1096.33,466.551 1093.6,491.657 1137.36,515.488 1139.73,476.525 " style="stroke:black;stroke-width:3" fill-opacity="0.1"/>
	<polygon points="1139.73,476.525 1137.36,515.488 1187.95,527.353 1188.39,472.6 " style="stroke:black;stroke-width:3" fill-opacity="0.1"/>
	<polygon points="1188.39,472.6 1187.95,527.353 1214.8,517.734 1213.57,455.378 " style="stroke:black;stroke-width:3" fill-opacity="0.1"/>
	<polygon points="1214.8,517.734 1147.26,559.582 1134.2,528.877 1195.83,490.58 " style="stroke:black;stroke-width:3" fill-opacity="0.1"/>
	<polygon points="1195.83,490.58 1134.2,528.877 1099.44,492.613 1143.91,464.87 " style="stroke:black;stroke-width:3" fill-opacity="0.1"/>
	<polygon points="1143.91,464.87 1099.44,492.613 1067.39,474.53 1095.59,456.894 " style="stroke:black;stroke-width:3" fill-opacity="0.1"/>
	<polygon points="1095.59,456.894 1067.39,474.53 1055.31,481.92 1076.9,468.41 " style="stroke:black;stroke-width:3" fill-opacity="0.1"/>
	<polygon points="1076.9,468.41 1055.31,481.92 1066.83,508.358 1093.6,491.657 " style="stroke:black;stroke-width:3" fill-opacity="0.1"/>
	<polygon points="1093.6,491.657 1066.83,508.358 1096.22,541.07 1137.36,515.488 " style="stroke:black;stroke-width:3" fill-opacity="0.1"/>
	<polygon points="1137.36,515.488 1096.22,541.07 1129.81,563.401 1187.95,527.353 " style="stroke:black;stroke-width:3" fill-opacity="0.1"/>
	<polygon points="1187.95,527.353 1129.81,563.401 1147.26,559.582 1214.8,517.734 " style="stroke:black;stroke-width:3" fill-opacity="0.1"/>
</svg>