<svg height="900" width="1600" xmlns="http://www.w3.org/2000/svg" style="background-color:white">
	<polygon points="500,686.386 536.33,659.298 522.765,643.103 489.844,667.476 " style="stroke:black;stroke-width:3" fill-opacity="0.1"/>
	<polygon points="489.844,667.476 522.765,643.103 510.692,633.327 485.528,651.862 " style="stroke:black;stroke-width:3" fill-opacity="0.1"/>
	<polygon points="485.528,651.862 510.692,633.327 506.966,635.641 489.601,648.43 " style="stroke:black;stroke-width:3" fill-opacity="0.1"/>
	<polygon points="489.601,648.43 506.966,635.641 514.154,649.205 500,659.682 " style="stroke:black;stroke-width:3" fill-opacity="0.1"/>
	<polygon points="500,659.682 514.154,649.205 528.272,666.139 510.617,679.305 " style="stroke:black;stroke-width:3" fill-opacity="0.1"/>
	<polygon points="510.617,679.305 528.272,666.139 540.648,675.985 514.899,695.288 " style="stroke:black;stroke-width:3" fill-opacity="0.1"/>
	<polygon points="514.899,695.288 540.648,675.985 543.82,672.933 510.365,698.008 " style="stroke:black;stroke-width:3" fill-opacity="0.1"/>
	<polygon points="510.365,698.008 543.82,672.933 536.33,659.298 500,686.386 " style="stroke:black;stroke-width:3" fill-opacity="0.1"/>
	<polygon points="536.33,659.298 563.482,627.967 547.192,614.663 522.765,643.103 " style="stroke:black;stroke-width:3" fill-opacity="0.1"/>
	<polygon points="522.765,643.103 547.192,614.663 529.236,611.589 510.692,633.327 " style="stroke:black;stroke-width:3" fill-opacity="0.1"/>
	<polygon points="510.692,633.327 529.236,611.589 519.735,620.665 506.966,635.641 " style="stroke:black;stroke-width:3" fill-opacity="0.1"/>
	<polygon points="506.966,635.641 519.735,620.665 524.599,637.029 514.154,649.205 " style="stroke:black;stroke-width:3" fill-opacity="0.1"/>
	<polygon points="514.154,649.205 524.599,637.029 541.4,650.979 528.272,666.139 " style="stroke:black;stroke-width:3" fill-opacity="0.1"/>
	<polygon points="528.272,666.139 541.4,650.979 559.929,653.873 540.648,675.985 " style="stroke:black;stroke-width:3" fill-opacity="0.1"/>
	<polygon points="540.648,675.985 559.929,653.873 568.92,644.152 543.82,672.933 " style="stroke:black;stroke-width:3" fill-opacity="0.1"/>
	<polygon points="543.82,672.933 568.92,644.152 563.482,627.967 536.33,659.298 " style="stroke:black;stroke-width:3" fill-opacity="0.1"/>
	<polygon points="563.482,627.967 575.004,599.471 557.239,588.694 547.192,614.663 " style="stroke:black;stroke-width:3" fill-opacity="0.1"/>
	<polygon points="547.192,614.663 557.239,588.694 536.572,591.844 529.236,611.589 " style="stroke:black;stroke-width:3" fill-opacity="0.1"/>
	<polygon points="529.236,611.589 536.572,591.844 524.663,607.219 519.735,620.665 " style="stroke:black;stroke-width:3" fill-opacity="0.1"/>
	<polygon points="519.735,620.665 524.663,607.219 528.657,626.222 524.599,637.029 " style="stroke:black;stroke-width:3" fill-opacity="0.1"/>
	<polygon points="524.599,637.029 528.657,626.222 546.674,637.584 541.4,650.979 " style="stroke:black;stroke-width:3" fill-opacity="0.1"/>
	<polygon points="541.4,650.979 546.674,637.584 567.986,634.226 559.929,653.873 " style="stroke:black;stroke-width:3" fill-opacity="0.1"/>
	<polygon points="559.929,653.873 567.986,634.226 579.642,618.267 568.92,644.152 " style="stroke:black;stroke-width:3" fill-opacity="0.1"/>
	<polygon points="568.92,644.152 579.642,618.267 575.004,599.471 563.482,627.967 " style="stroke:black;stroke-width:3" fill-opacity="0.1"/>
	<polygon points="575.004,599.471 567.043,580.996 549.571,571.778 557.239,588.694 " style="stroke:black;stroke-width:3" fill-opacity="0.1"/>
	<polygon points="557.239,588.694 549.571,571.778 530.347,579.172 536.572,591.844 " style="stroke:black;stroke-width:3" fill-opacity="0.1"/>
	<polygon points="536.572,591.844 530.347,579.172 520.245,598.813 524.663,607.219 " style="stroke:black;stroke-width:3" fill-opacity="0.1"/>
	<polygon points="524.663,607.219 520.245,598.813 525.116,619.623 528.657,626.222 " style="stroke:black;stroke-width:3" fill-opacity="0.1"/>
	<polygon points="528.657,626.222 525.116,619.623 542.494,629.456 546.674,637.584 " style="stroke:black;stroke-width:3" fill-opacity="0.1"/>
	<polygon points="546.674,637.584 542.494,629.456 562.274,622.115 567.986,634.226 " style="stroke:black;stroke-width:3" fill-opacity="0.1"/>
	<polygon points="567.986,634.226 562.274,622.115 572.47,601.858 579.642,618.267 " style="stroke:black;stroke-width:3" fill-opacity="0.1"/>
	<polygon points="579.642,618.267 572.47,601.858 567.043,580.996 575.004,599.471 " style="stroke:black;stroke-width:3" fill-opacity="0.1"/>
	<polygon points="567.043,580.996 539.975,578.421 524.812,569.201 549.571,571.778 " style="stroke:black;stroke-width:3" fill-opacity="0.1"/>
	<polygon points="549.571,571.778 524.812,569.201 511.41,577.407 530.347,579.172 " style="stroke:black;stroke-width:3" fill-opacity="0.1"/>
	<polygon points="530.347,579.172 511.41,577.407 507.283,597.911 520.245,598.813 " style="stroke:black;stroke-width:3" fill-opacity="0.1"/>
	<polygon points="520.245,598.813 507.283,597.911 514.675,619.142 525.116,619.623 " style="stroke:black;stroke-width:3" fill-opacity="0.1"/>
	<polygon points="525.116,619.623 514.675,619.142 529.586,628.999 542.494,629.456 " style="stroke:black;stroke-width:3" fill-opacity="0.1"/>
	<polygon points="542.494,629.456 529.586,628.999 543.466,621.267 562.274,622.115 " style="stroke:black;stroke-width:3" fill-opacity="0.1"/>
	<polygon points="562.274,622.115 543.466,621.267 547.846,600.127 572.47,601.858 " style="stroke:black;stroke-width:3" fill-opacity="0.1"/>
	<polygon points="572.47,601.858 547.846,600.127 539.975,578.421 567.043,580.996 " style="stroke:black;stroke-width:3" fill-opacity="0.1"/>
	<polygon points="539.975,578.421 500,593.962 488.767,582.888 524.812,569.201 " style="stroke:black;stroke-width:3" fill-opacity="0.1"/>
	<polygon points="524.812,569.201 488.767,582.888 484.387,587.718 511.41,577.407 " style="stroke:black;stroke-width:3" fill-opacity="0.1"/>
	<polygon points="511.41,577.407 484.387,587.718 489.049,605.072 507.283,597.911 " style="stroke:black;stroke-width:3" fill-opacity="0.1"/>
	<polygon points="507.283,597.911 489.049,605.072 500,625.117 514.675,619.142 " style="stroke:black;stroke-width:3" fill-opacity="0.1"/>
	<polygon points="514.675,619.142 500,625.117 511.193,636.662 529.586,628.999 " style="stroke:black;stroke-width:3" fill-opacity="0.1"/>
	<polygon points="529.586,628.999 511.193,636.662 516.111,632.632 543.466,621.267 " style="stroke:black;stroke-width:3" fill-opacity="0.1"/>
	<polygon points="543.466,621.267 516.111,632.632 511.489,614.807 547.846,600.127 " style="stroke:black;stroke-width:3" fill-opacity="0.1"/>
	<polygon points="547.846,600.127 511.489,614.807 500,593.962 539.975,578.421 " style="stroke:black;stroke-width:3" fill-opacity="0.1"/>
	<polygon points="500,593.962 458.723,623.975 451.835,609.6 488.767,582.888 " style="stroke:black;stroke-width:3" fill-opacity="0.1"/>
	<polygon points="488.767,582.888 451.835,609.6 456.947,607.574 484.387,587.718 " style="stroke:black;stroke-width:3" fill-opacity="0.1"/>
	<polygon points="484.387,587.718 456.947,607.574 470.629,618.477 489.049,605.072 " style="stroke:black;stroke-width:3" fill-opacity="0.1"/>
	<polygon points="489.049,605.072 470.629,618.477 485.153,636.005 500,625.117 " style="stroke:black;stroke-width:3" fill-opacity="0.1"/>
	<polygon points="500,625.117 485.153,636.005 492.447,650.484 511.193,636.662 " style="stroke:black;stroke-width:3" fill-opacity="0.1"/>
	<polygon points="511.193,636.662 492.447,650.484 487.97,653.379 516.111,632.632 " style="stroke:black;stroke-width:3" fill-opacity="0.1"/>
	<polygon points="516.111,632.632 487.97,653.379 473.882,642.371 511.489,614.807 " style="stroke:black;stroke-width:3" fill-opacity="0.1"/>
	<polygon points="511.489,614.807 473.882,642.371 458.723,623.975 500,593.962 " style="stroke:black;stroke-width:3" fill-opacity="0.1"/>
	<polygon points="458.723,623.975 429.212,659.261 425.522,641.261 451.835,609.6 " style="stroke:black;stroke-width:3" fill-opacity="0.1"/>
	<polygon points="451.835,609.6 425.522,641.261 437.336,631.145 456.947,607.574 " style="stroke:black;stroke-width:3" fill-opacity="0.1"/>
	<polygon points="456.947,607.574 437.336,631.145 457.364,634.3 470.629,618.477 " style="stroke:black;stroke-width:3" fill-opacity="0.1"/>
	<polygon points="470.629,618.477 457.364,634.3 474.376,648.735 485.153,636.005 " style="stroke:black;stroke-width:3" fill-opacity="0.1"/>
	<polygon points="485.153,636.005 474.376,648.735 478.789,666.513 492.447,650.484 " style="stroke:black;stroke-width:3" fill-opacity="0.1"/>
	<polygon points="492.447,650.484 478.789,666.513 467.524,677.39 487.97,653.379 " style="stroke:black;stroke-width:3" fill-opacity="0.1"/>
	<polygon points="487.97,653.379 467.524,677.39 446.773,674.456 473.882,642.371 " style="stroke:black;stroke-width:3" fill-opacity="0.1"/>
	<polygon points="473.882,642.371 446.773,674.456 429.212,659.261 458.723,623.975 " style="stroke:black;stroke-width:3" fill-opacity="0.1"/>
	<polygon points="429.212,659.261 420.278,688.777 417.598,668.106 425.522,641.261 " style="stroke:black;stroke-width:3" fill-opacity="0.1"/>
	<polygon points="425.522,641.261 417.598,668.106 431.211,651.399 437.336,631.145 " style="stroke:black;stroke-width:3" fill-opacity="0.1"/>
	<polygon points="437.336,631.145 431.211,651.399 452.993,647.978 457.364,634.3 " style="stroke:black;stroke-width:3" fill-opacity="0.1"/>
	<polygon points="457.364,634.3 452.993,647.978 470.681,659.685 474.376,648.735 " style="stroke:black;stroke-width:3" fill-opacity="0.1"/>
	<polygon points="474.376,648.735 470.681,659.685 474.077,680.121 478.789,666.513 " style="stroke:black;stroke-width:3" fill-opacity="0.1"/>
	<polygon points="478.789,666.513 474.077,680.121 460.692,697.49 467.524,677.39 " style="stroke:black;stroke-width:3" fill-opacity="0.1"/>
	<polygon points="467.524,677.39 460.692,697.49 438.193,701.147 446.773,674.456 " style="stroke:black;stroke-width:3" fill-opacity="0.1"/>
	<polygon points="446.773,674.456 438.193,701.147 420.278,688.777 429.212,659.261 " style="stroke:black;stroke-width:3" fill-opacity="0.1"/>
	<polygon points="420.278,688.777 433.171,704.332 429.266,682.686 417.598,668.106 " style="stroke:black;stroke-width:3" fill-opacity="0.1"/>
	<polygon points="417.598,668.106 429.266,682.686 439.71,662.751 431.211,651.399 " style="stroke:black;stroke-width:3" fill-opacity="0.1"/>
	<polygon points="431.211,651.399 439.71,662.751 458.465,655.768 452.993,647.978 " style="stroke:black;stroke-width:3" fill-opacity="0.1"/>
	<polygon points="452.993,647.978 458.465,655.768 474.914,665.874 470.681,659.685 " style="stroke:black;stroke-width:3" fill-opacity="0.1"/>
	<polygon points="470.681,659.685 474.914,665.874 479.349,687.593 474.077,680.121 " style="stroke:black;stroke-width:3" fill-opacity="0.1"/>
	<polygon points="474.077,680.121 479.349,687.593 468.792,708.159 460.692,697.49 " style="stroke:black;stroke-width:3" fill-opacity="0.1"/>
	<polygon points="460.692,697.49 468.792,708.159 449.506,715.069 438.193,701.147 " style="stroke:black;stroke-width:3" fill-opacity="0.1"/>
	<polygon points="438.193,701.147 449.506,715.069 433.171,704.332 420.278,688.777 " style="stroke:black;stroke-width:3" fill-opacity="0.1"/>
	<polygon points="433.171,704.332 462.598,702.961 455.913,682.048 429.266,682.686 " style="stroke:black;stroke-width:3" fill-opacity="0.1"/>
	<polygon points="429.266,682.686 455.913,682.048 459.713,662.685 439.71,662.751 " style="stroke:black;stroke-width:3" fill-opacity="0.1"/>
	<polygon points="439.71,662.751 459.713,662.685 471.924,655.823 458.465,655.768 " style="stroke:black;stroke-width:3" fill-opacity="0.1"/>
	<polygon points="458.465,655.768 471.924,655.823 485.686,665.8 474.914,665.874 " style="stroke:black;stroke-width:3" fill-opacity="0.1"/>
	<polygon points="474.914,665.874 485.686,665.8 492.787,687.182 479.349,687.593 " style="stroke:black;stroke-width:3" fill-opacity="0.1"/>
	<polygon points="479.349,687.593 492.787,687.182 488.766,707.11 468.792,708.159 " style="stroke:black;stroke-width:3" fill-opacity="0.1"/>
	<polygon points="468.792,708.159 488.766,707.11 476.139,713.504 449.506,715.069 " style="stroke:black;stroke-width:3" fill-opacity="0.1"/>
	<polygon points="449.506,715.069 476.139,713.504 462.598,702.961 433.171,704.332 " style="stroke:black;stroke-width:3" fill-opacity="0.1"/>
	<polygon points="462.598,702.961 500,686.386 489.844,667.476 455.913,682.048 " style="stroke:black;stroke-width:3" fill-opacity="0.1"/>
	<polygon points="455.913,682.048 489.844,667.476 485.528,651.862 459.713,662.685 " style="stroke:black;stroke-width:3" fill-opacity="0.1"/>
	<polygon points="459.713,662.685 485.528,651.862 489.601,648.43 471.924,655.823 " style="stroke:black;stroke-width:3" fill-opacity="0.1"/>
	<polygon points="471.924,655.823 489.601,648.43 500,659.682 485.686,665.8 " style="stroke:black;stroke-width:3" fill-opacity="0.1"/>
	<polygon points="485.686,665.8 500,659.682 510.617,679.305 492.787,687.182 " style="stroke:black;stroke-width:3" fill-opacity="0.1"/>
	<polygon points="492.787,687.182 510.617,679.305 514.899,695.288 488.766,707.11 " style="stroke:black;stroke-width:3" fill-opacity="0.1"/>
	<polygon points="488.766,707.11 514.899,695.288 510.365,698.008 476.139,713.504 " style="stroke:black;stroke-width:3" fill-opacity="0.1"/>
	<polygon points="476.139,713.504 510.365,698.008 500,686.386 462.598,702.961 " style="stroke:black;stroke-width:3" fill-opacity="0.1"/>
<text x="500" y="742.762" fill="red">Torus</text>
<circle r="10" cx="500" cy="642.762" fill="red" />
	<polygon points="542.794,508.651 503.283,488.234 496.989,489.421 533.393,508.3 " style="stroke:black;stroke-width:3" fill-opacity="0.1"/>
	<polygon points="533.393,508.3 496.989,489.421 501.614,478.027 529.513,492.335 " style="stroke:black;stroke-width:3" fill-opacity="0.1"/>
	<polygon points="529.513,492.335 501.614,478.027 514.688,460.636 533.687,470.189 " style="stroke:black;stroke-width:3" fill-opacity="0.1"/>
	<polygon points="533.687,470.189 514.688,460.636 528.165,447.97 543.32,455.469 " style="stroke:black;stroke-width:3" fill-opacity="0.1"/>
	<polygon points="543.32,455.469 528.165,447.97 533.93,447.519 552.516,456.69 " style="stroke:black;stroke-width:3" fill-opacity="0.1"/>
	<polygon points="552.516,456.69 533.93,447.519 528.986,459.023 556.04,472.527 " style="stroke:black;stroke-width:3" fill-opacity="0.1"/>
	<polygon points="556.04,472.527 528.986,459.023 516.443,475.678 552.071,493.802 " style="stroke:black;stroke-width:3" fill-opacity="0.1"/>
	<polygon points="552.071,493.802 516.443,475.678 503.283,488.234 542.794,508.651 " style="stroke:black;stroke-width:3" fill-opacity="0.1"/>
	<polygon points="503.283,488.234 475.037,451.517 470.89,455.435 496.989,489.421 " style="stroke:black;stroke-width:3" fill-opacity="0.1"/>
	<polygon points="496.989,489.421 470.89,455.435 481.53,451.957 501.614,478.027 " style="stroke:black;stroke-width:3" fill-opacity="0.1"/>
	<polygon points="501.614,478.027 481.53,451.957 500.97,442.942 514.688,460.636 " style="stroke:black;stroke-width:3" fill-opacity="0.1"/>
	<polygon points="514.688,460.636 500.97,442.942 517.224,433.936 528.165,447.97 " style="stroke:black;stroke-width:3" fill-opacity="0.1"/>
	<polygon points="528.165,447.97 517.224,433.936 520.551,430.383 533.93,447.519 " style="stroke:black;stroke-width:3" fill-opacity="0.1"/>
	<polygon points="533.93,447.519 520.551,430.383 509.591,434.098 528.986,459.023 " style="stroke:black;stroke-width:3" fill-opacity="0.1"/>
	<polygon points="528.986,459.023 509.591,434.098 490.973,442.748 516.443,475.678 " style="stroke:black;stroke-width:3" fill-opacity="0.1"/>
	<polygon points="516.443,475.678 490.973,442.748 475.037,451.517 503.283,488.234 " style="stroke:black;stroke-width:3" fill-opacity="0.1"/>
	<polygon points="475.037,451.517 464.547,407.509 461.168,414.741 470.89,455.435 " style="stroke:black;stroke-width:3" fill-opacity="0.1"/>
	<polygon points="470.89,455.435 461.168,414.741 474.098,420.694 481.53,451.957 " style="stroke:black;stroke-width:3" fill-opacity="0.1"/>
	<polygon points="481.53,451.957 474.098,420.694 495.957,421.658 500.97,442.942 " style="stroke:black;stroke-width:3" fill-opacity="0.1"/>
	<polygon points="500.97,442.942 495.957,421.658 513.269,417.006 517.224,433.936 " style="stroke:black;stroke-width:3" fill-opacity="0.1"/>
	<polygon points="517.224,433.936 513.269,417.006 515.726,409.693 520.551,430.383 " style="stroke:black;stroke-width:3" fill-opacity="0.1"/>
	<polygon points="520.551,430.383 515.726,409.693 502.549,404.054 509.591,434.098 " style="stroke:black;stroke-width:3" fill-opacity="0.1"/>
	<polygon points="509.591,434.098 502.549,404.054 481.612,403.172 490.973,442.748 " style="stroke:black;stroke-width:3" fill-opacity="0.1"/>
	<polygon points="490.973,442.748 481.612,403.172 464.547,407.509 475.037,451.517 " style="stroke:black;stroke-width:3" fill-opacity="0.1"/>
	<polygon points="464.547,407.509 474.554,366.684 470.369,377.115 461.168,414.741 " style="stroke:black;stroke-width:3" fill-opacity="0.1"/>
	<polygon points="461.168,414.741 470.369,377.115 481.277,391.953 474.098,420.694 " style="stroke:black;stroke-width:3" fill-opacity="0.1"/>
	<polygon points="474.098,420.694 481.277,391.953 500.979,402.18 495.957,421.658 " style="stroke:black;stroke-width:3" fill-opacity="0.1"/>
	<polygon points="495.957,421.658 500.979,402.18 517.351,401.524 513.269,417.006 " style="stroke:black;stroke-width:3" fill-opacity="0.1"/>
	<polygon points="513.269,417.006 517.351,401.524 520.736,390.706 515.726,409.693 " style="stroke:black;stroke-width:3" fill-opacity="0.1"/>
	<polygon points="515.726,409.693 520.736,390.706 509.717,376.328 502.549,404.054 " style="stroke:black;stroke-width:3" fill-opacity="0.1"/>
	<polygon points="502.549,404.054 509.717,376.328 490.816,366.488 481.612,403.172 " style="stroke:black;stroke-width:3" fill-opacity="0.1"/>
	<polygon points="481.612,403.172 490.816,366.488 474.554,366.684 464.547,407.509 " style="stroke:black;stroke-width:3" fill-opacity="0.1"/>
	<polygon points="474.554,366.684 503.396,339.401 496.894,352.151 470.369,377.115 " style="stroke:black;stroke-width:3" fill-opacity="0.1"/>
	<polygon points="470.369,377.115 496.894,352.151 501.653,373.155 481.277,391.953 " style="stroke:black;stroke-width:3" fill-opacity="0.1"/>
	<polygon points="481.277,391.953 501.653,373.155 514.926,389.602 500.979,402.18 " style="stroke:black;stroke-width:3" fill-opacity="0.1"/>
	<polygon points="500.979,402.18 514.926,389.602 528.528,391.559 517.351,401.524 " style="stroke:black;stroke-width:3" fill-opacity="0.1"/>
	<polygon points="517.351,401.524 528.528,391.559 534.464,378.389 520.736,390.706 " style="stroke:black;stroke-width:3" fill-opacity="0.1"/>
	<polygon points="520.736,390.706 534.464,378.389 529.655,358.088 509.717,376.328 " style="stroke:black;stroke-width:3" fill-opacity="0.1"/>
	<polygon points="509.717,376.328 529.655,358.088 516.947,342.061 490.816,366.488 " style="stroke:black;stroke-width:3" fill-opacity="0.1"/>
	<polygon points="490.816,366.488 516.947,342.061 503.396,339.401 474.554,366.684 " style="stroke:black;stroke-width:3" fill-opacity="0.1"/>
	<polygon points="503.396,339.401 544.524,333.735 534.636,347.199 496.894,352.151 " style="stroke:black;stroke-width:3" fill-opacity="0.1"/>
	<polygon points="496.894,352.151 534.636,347.199 530.346,369.731 501.653,373.155 " style="stroke:black;stroke-width:3" fill-opacity="0.1"/>
	<polygon points="501.653,373.155 530.346,369.731 534.325,387.479 514.926,389.602 " style="stroke:black;stroke-width:3" fill-opacity="0.1"/>
	<polygon points="514.926,389.602 534.325,387.479 543.969,389.897 528.528,391.559 " style="stroke:black;stroke-width:3" fill-opacity="0.1"/>
	<polygon points="528.528,391.559 543.969,389.897 553.482,376.214 534.464,378.389 " style="stroke:black;stroke-width:3" fill-opacity="0.1"/>
	<polygon points="534.464,378.389 553.482,376.214 557.555,354.582 529.655,358.088 " style="stroke:black;stroke-width:3" fill-opacity="0.1"/>
	<polygon points="529.655,358.088 557.555,354.582 553.951,337.055 516.947,342.061 " style="stroke:black;stroke-width:3" fill-opacity="0.1"/>
	<polygon points="516.947,342.061 553.951,337.055 544.524,333.735 503.396,339.401 " style="stroke:black;stroke-width:3" fill-opacity="0.1"/>
	<polygon points="544.524,333.735 587.073,352.649 573.608,364.809 534.636,347.199 " style="stroke:black;stroke-width:3" fill-opacity="0.1"/>
	<polygon points="534.636,347.199 573.608,364.809 559.729,383.306 530.346,369.731 " style="stroke:black;stroke-width:3" fill-opacity="0.1"/>
	<polygon points="530.346,369.731 559.729,383.306 554.001,396.698 534.325,387.479 " style="stroke:black;stroke-width:3" fill-opacity="0.1"/>
	<polygon points="534.325,387.479 554.001,396.698 559.55,397.185 543.969,389.897 " style="stroke:black;stroke-width:3" fill-opacity="0.1"/>
	<polygon points="543.969,389.897 559.55,397.185 572.713,385.065 553.482,376.214 " style="stroke:black;stroke-width:3" fill-opacity="0.1"/>
	<polygon points="553.482,376.214 572.713,385.065 585.995,367.399 557.555,354.582 " style="stroke:black;stroke-width:3" fill-opacity="0.1"/>
	<polygon points="557.555,354.582 585.995,367.399 592.026,353.966 553.951,337.055 " style="stroke:black;stroke-width:3" fill-opacity="0.1"/>
	<polygon points="553.951,337.055 592.026,353.966 587.073,352.649 544.524,333.735 " style="stroke:black;stroke-width:3" fill-opacity="0.1"/>
	<polygon points="587.073,352.649 618.514,391.725 602.416,400.808 573.608,364.809 " style="stroke:black;stroke-width:3" fill-opacity="0.1"/>
	<polygon points="573.608,364.809 602.416,400.808 581.381,410.545 559.729,383.306 " style="stroke:black;stroke-width:3" fill-opacity="0.1"/>
	<polygon points="559.729,383.306 581.381,410.545 568.432,414.922 554.001,396.698 " style="stroke:black;stroke-width:3" fill-opacity="0.1"/>
	<polygon points="554.001,396.698 568.432,414.922 570.94,411.551 559.55,397.185 " style="stroke:black;stroke-width:3" fill-opacity="0.1"/>
	<polygon points="559.55,397.185 570.94,411.551 586.768,402.699 572.713,385.065 " style="stroke:black;stroke-width:3" fill-opacity="0.1"/>
	<polygon points="572.713,385.065 586.768,402.699 606.843,393.387 585.995,367.399 " style="stroke:black;stroke-width:3" fill-opacity="0.1"/>
	<polygon points="585.995,367.399 606.843,393.387 620.063,388.779 592.026,353.966 " style="stroke:black;stroke-width:3" fill-opacity="0.1"/>
	<polygon points="592.026,353.966 620.063,388.779 618.514,391.725 587.073,352.649 " style="stroke:black;stroke-width:3" fill-opacity="0.1"/>
	<polygon points="618.514,391.725 629.156,439.596 612.273,444.784 602.416,400.808 " style="stroke:black;stroke-width:3" fill-opacity="0.1"/>
	<polygon points="602.416,400.808 612.273,444.784 588.893,443.709 581.381,410.545 " style="stroke:black;stroke-width:3" fill-opacity="0.1"/>
	<polygon points="581.381,410.545 588.893,443.709 573.481,437.071 568.432,414.922 " style="stroke:black;stroke-width:3" fill-opacity="0.1"/>
	<polygon points="568.432,414.922 573.481,437.071 574.917,429.023 570.94,411.551 " style="stroke:black;stroke-width:3" fill-opacity="0.1"/>
	<polygon points="570.94,411.551 574.917,429.023 591.623,424.204 586.768,402.699 " style="stroke:black;stroke-width:3" fill-opacity="0.1"/>
	<polygon points="586.768,402.699 591.623,424.204 613.95,425.183 606.843,393.387 " style="stroke:black;stroke-width:3" fill-opacity="0.1"/>
	<polygon points="606.843,393.387 613.95,425.183 629.539,431.452 620.063,388.779 " style="stroke:black;stroke-width:3" fill-opacity="0.1"/>
	<polygon points="620.063,388.779 629.539,431.452 629.156,439.596 618.514,391.725 " style="stroke:black;stroke-width:3" fill-opacity="0.1"/>
	<polygon points="629.156,439.596 616.108,481.919 600.501,483.675 612.273,444.784 " style="stroke:black;stroke-width:3" fill-opacity="0.1"/>
	<polygon points="612.273,444.784 600.501,483.675 580.229,473.182 588.893,443.709 " style="stroke:black;stroke-width:3" fill-opacity="0.1"/>
	<polygon points="588.893,443.709 580.229,473.182 567.782,456.882 573.481,437.071 " style="stroke:black;stroke-width:3" fill-opacity="0.1"/>
	<polygon points="573.481,437.071 567.782,456.882 570.408,444.716 574.917,429.023 " style="stroke:black;stroke-width:3" fill-opacity="0.1"/>
	<polygon points="574.917,429.023 570.408,444.716 585.969,443.51 591.623,424.204 " style="stroke:black;stroke-width:3" fill-opacity="0.1"/>
	<polygon points="591.623,424.204 585.969,443.51 605.394,453.596 613.95,425.183 " style="stroke:black;stroke-width:3" fill-opacity="0.1"/>
	<polygon points="613.95,425.183 605.394,453.596 617.887,469.346 629.539,431.452 " style="stroke:black;stroke-width:3" fill-opacity="0.1"/>
	<polygon points="629.539,431.452 617.887,469.346 616.108,481.919 629.156,439.596 " style="stroke:black;stroke-width:3" fill-opacity="0.1"/>
	<polygon points="616.108,481.919 584.077,506.843 571.272,506.625 600.501,483.675 " style="stroke:black;stroke-width:3" fill-opacity="0.1"/>
	<polygon points="600.501,483.675 571.272,506.625 558.286,490.811 580.229,473.182 " style="stroke:black;stroke-width:3" fill-opacity="0.1"/>
	<polygon points="580.229,473.182 558.286,490.811 553.122,468.929 567.782,456.882 " style="stroke:black;stroke-width:3" fill-opacity="0.1"/>
	<polygon points="567.782,456.882 553.122,468.929 558.783,454.349 570.408,444.716 " style="stroke:black;stroke-width:3" fill-opacity="0.1"/>
	<polygon points="570.408,444.716 558.783,454.349 571.565,455.331 585.969,443.51 " style="stroke:black;stroke-width:3" fill-opacity="0.1"/>
	<polygon points="585.969,443.51 571.565,455.331 584.005,470.771 605.394,453.596 " style="stroke:black;stroke-width:3" fill-opacity="0.1"/>
	<polygon points="605.394,453.596 584.005,470.771 589.193,491.889 617.887,469.346 " style="stroke:black;stroke-width:3" fill-opacity="0.1"/>
	<polygon points="617.887,469.346 589.193,491.889 584.077,506.843 616.108,481.919 " style="stroke:black;stroke-width:3" fill-opacity="0.1"/>
	<polygon points="584.077,506.843 542.794,508.651 533.393,508.3 571.272,506.625 " style="stroke:black;stroke-width:3" fill-opacity="0.1"/>
	<polygon points="571.272,506.625 533.393,508.3 529.513,492.335 558.286,490.811 " style="stroke:black;stroke-width:3" fill-opacity="0.1"/>
	<polygon points="558.286,490.811 529.513,492.335 533.687,470.189 553.122,468.929 " style="stroke:black;stroke-width:3" fill-opacity="0.1"/>
	<polygon points="553.122,468.929 533.687,470.189 543.32,455.469 558.783,454.349 " style="stroke:black;stroke-width:3" fill-opacity="0.1"/>
	<polygon points="558.783,454.349 543.32,455.469 552.516,456.69 571.565,455.331 " style="stroke:black;stroke-width:3" fill-opacity="0.1"/>
	<polygon points="571.565,455.331 552.516,456.69 556.04,472.527 584.005,470.771 " style="stroke:black;stroke-width:3" fill-opacity="0.1"/>
	<polygon points="584.005,470.771 556.04,472.527 552.071,493.802 589.193,491.889 " style="stroke:black;stroke-width:3" fill-opacity="0.1"/>
	<polygon points="589.193,491.889 552.071,493.802 542.794,508.651 584.077,506.843 " style="stroke:black;stroke-width:3" fill-opacity="0.1"/>
<text x="543.642" y="522.927" fill="red">Torus.001</text>
<circle r="10" cx="543.642" cy="422.927" fill="red" />
	<polygon points="565.114,807.199 512.621,811.844 504.459,787.433 552.048,782.643 " style="stroke:black;stroke-width:3" fill-opacity="0.1"/>
	<polygon points="552.048,782.643 504.459,787.433 510.306,757.836 545.857,753.76 " style="stroke:black;stroke-width:3" fill-opacity="0.1"/>
	<polygon points="545.857,753.76 510.306,757.836 526.294,741.085 550.036,738.194 " style="stroke:black;stroke-width:3" fill-opacity="0.1"/>
	<polygon points="550.036,738.194 526.294,741.085 542.719,746.356 561.617,744.119 " style="stroke:black;stroke-width:3" fill-opacity="0.1"/>
	<polygon points="561.617,744.119 542.719,746.356 550.388,769.898 573.943,767.383 " style="stroke:black;stroke-width:3" fill-opacity="0.1"/>
	<polygon points="573.943,767.383 550.388,769.898 545.144,798.522 580.296,795.238 " style="stroke:black;stroke-width:3" fill-opacity="0.1"/>
	<polygon points="580.296,795.238 545.144,798.522 529.65,816.141 576.857,812.095 " style="stroke:black;stroke-width:3" fill-opacity="0.1"/>
	<polygon points="576.857,812.095 529.65,816.141 512.621,811.844 565.114,807.199 " style="stroke:black;stroke-width:3" fill-opacity="0.1"/>
	<polygon points="512.621,811.844 476.359,788.167 471.563,766.655 504.459,787.433 " style="stroke:black;stroke-width:3" fill-opacity="0.1"/>
	<polygon points="504.459,787.433 471.563,766.655 485.268,742.945 510.306,757.836 " style="stroke:black;stroke-width:3" fill-opacity="0.1"/>
	<polygon points="510.306,757.836 485.268,742.945 509.151,731.381 526.294,741.085 " style="stroke:black;stroke-width:3" fill-opacity="0.1"/>
	<polygon points="526.294,741.085 509.151,731.381 528.852,738.565 542.719,746.356 " style="stroke:black;stroke-width:3" fill-opacity="0.1"/>
	<polygon points="542.719,746.356 528.852,738.565 533.124,759.846 550.388,769.898 " style="stroke:black;stroke-width:3" fill-opacity="0.1"/>
	<polygon points="550.388,769.898 533.124,759.846 519.826,782.925 545.144,798.522 " style="stroke:black;stroke-width:3" fill-opacity="0.1"/>
	<polygon points="545.144,798.522 519.826,782.925 496.466,794.719 529.65,816.141 " style="stroke:black;stroke-width:3" fill-opacity="0.1"/>
	<polygon points="529.65,816.141 496.466,794.719 476.359,788.167 512.621,811.844 " style="stroke:black;stroke-width:3" fill-opacity="0.1"/>
	<polygon points="476.359,788.167 464.88,745.832 461.209,728.623 471.563,766.655 " style="stroke:black;stroke-width:3" fill-opacity="0.1"/>
	<polygon points="471.563,766.655 461.209,728.623 476.939,714.629 485.268,742.945 " style="stroke:black;stroke-width:3" fill-opacity="0.1"/>
	<polygon points="485.268,742.945 476.939,714.629 502.992,712.379 509.151,731.381 " style="stroke:black;stroke-width:3" fill-opacity="0.1"/>
	<polygon points="509.151,731.381 502.992,712.379 523.608,723.28 528.852,738.565 " style="stroke:black;stroke-width:3" fill-opacity="0.1"/>
	<polygon points="528.852,738.565 523.608,723.28 526.586,740.609 533.124,759.846 " style="stroke:black;stroke-width:3" fill-opacity="0.1"/>
	<polygon points="533.124,759.846 526.586,740.609 510.676,754.137 519.826,782.925 " style="stroke:black;stroke-width:3" fill-opacity="0.1"/>
	<polygon points="519.826,782.925 510.676,754.137 485.315,756.266 496.466,794.719 " style="stroke:black;stroke-width:3" fill-opacity="0.1"/>
	<polygon points="496.466,794.719 485.315,756.266 464.88,745.832 476.359,788.167 " style="stroke:black;stroke-width:3" fill-opacity="0.1"/>
	<polygon points="464.88,745.832 478.212,697.632 473.617,684.779 461.209,728.623 " style="stroke:black;stroke-width:3" fill-opacity="0.1"/>
	<polygon points="461.209,728.623 473.617,684.779 486.087,681.238 476.939,714.629 " style="stroke:black;stroke-width:3" fill-opacity="0.1"/>
	<polygon points="476.939,714.629 486.087,681.238 508.802,689.54 502.992,712.379 " style="stroke:black;stroke-width:3" fill-opacity="0.1"/>
	<polygon points="502.992,712.379 508.802,689.54 527.972,704.832 523.608,723.28 " style="stroke:black;stroke-width:3" fill-opacity="0.1"/>
	<polygon points="523.608,723.28 527.972,704.832 531.885,717.692 526.586,740.609 " style="stroke:black;stroke-width:3" fill-opacity="0.1"/>
	<polygon points="526.586,740.609 531.885,717.692 518.751,720.593 510.676,754.137 " style="stroke:black;stroke-width:3" fill-opacity="0.1"/>
	<polygon points="510.676,754.137 518.751,720.593 496.717,712.285 485.315,756.266 " style="stroke:black;stroke-width:3" fill-opacity="0.1"/>
	<polygon points="485.315,756.266 496.717,712.285 478.212,697.632 464.88,745.832 " style="stroke:black;stroke-width:3" fill-opacity="0.1"/>
	<polygon points="478.212,697.632 510.943,655.016 503.911,645.682 473.617,684.779 " style="stroke:black;stroke-width:3" fill-opacity="0.1"/>
	<polygon points="473.617,684.779 503.911,645.682 509.328,651.065 486.087,681.238 " style="stroke:black;stroke-width:3" fill-opacity="0.1"/>
	<polygon points="486.087,681.238 509.328,651.065 524.576,668.69 508.802,689.54 " style="stroke:black;stroke-width:3" fill-opacity="0.1"/>
	<polygon points="508.802,689.54 524.576,668.69 540.48,687.979 527.972,704.832 " style="stroke:black;stroke-width:3" fill-opacity="0.1"/>
	<polygon points="527.972,704.832 540.48,687.979 547.156,696.943 531.885,717.692 " style="stroke:black;stroke-width:3" fill-opacity="0.1"/>
	<polygon points="531.885,717.692 547.156,696.943 540.966,690.617 518.751,720.593 " style="stroke:black;stroke-width:3" fill-opacity="0.1"/>
	<polygon points="518.751,720.593 540.966,690.617 526.073,673.362 496.717,712.285 " style="stroke:black;stroke-width:3" fill-opacity="0.1"/>
	<polygon points="496.717,712.285 526.073,673.362 510.943,655.016 478.212,697.632 " style="stroke:black;stroke-width:3" fill-opacity="0.1"/>
	<polygon points="510.943,655.016 555.106,626.673 544.665,619.517 503.911,645.682 " style="stroke:black;stroke-width:3" fill-opacity="0.1"/>
	<polygon points="503.911,645.682 544.665,619.517 540.829,630.846 509.328,651.065 " style="stroke:black;stroke-width:3" fill-opacity="0.1"/>
	<polygon points="509.328,651.065 540.829,630.846 546.261,654.783 524.576,668.69 " style="stroke:black;stroke-width:3" fill-opacity="0.1"/>
	<polygon points="524.576,668.69 546.261,654.783 557.886,676.826 540.48,687.979 " style="stroke:black;stroke-width:3" fill-opacity="0.1"/>
	<polygon points="540.48,687.979 557.886,676.826 568.463,683.295 547.156,696.943 " style="stroke:black;stroke-width:3" fill-opacity="0.1"/>
	<polygon points="547.156,696.943 568.463,683.295 571.709,670.919 540.966,690.617 " style="stroke:black;stroke-width:3" fill-opacity="0.1"/>
	<polygon points="540.966,690.617 571.709,670.919 566.142,647.668 526.073,673.362 " style="stroke:black;stroke-width:3" fill-opacity="0.1"/>
	<polygon points="526.073,673.362 566.142,647.668 555.106,626.673 510.943,655.016 " style="stroke:black;stroke-width:3" fill-opacity="0.1"/>
	<polygon points="555.106,626.673 601.433,618.603 587.138,611.937 544.665,619.517 " style="stroke:black;stroke-width:3" fill-opacity="0.1"/>
	<polygon points="544.665,619.517 587.138,611.937 573.448,625.19 540.829,630.846 " style="stroke:black;stroke-width:3" fill-opacity="0.1"/>
	<polygon points="540.829,630.846 573.448,625.19 568.657,651.164 546.261,654.783 " style="stroke:black;stroke-width:3" fill-opacity="0.1"/>
	<polygon points="546.261,654.783 568.657,651.164 575.92,674.115 557.886,676.826 " style="stroke:black;stroke-width:3" fill-opacity="0.1"/>
	<polygon points="557.886,676.826 575.92,674.115 590.689,680.038 568.463,683.295 " style="stroke:black;stroke-width:3" fill-opacity="0.1"/>
	<polygon points="568.463,683.295 590.689,680.038 603.978,666.01 571.709,670.919 " style="stroke:black;stroke-width:3" fill-opacity="0.1"/>
	<polygon points="571.709,670.919 603.978,666.01 608.295,640.779 566.142,647.668 " style="stroke:black;stroke-width:3" fill-opacity="0.1"/>
	<polygon points="566.142,647.668 608.295,640.779 601.433,618.603 555.106,626.673 " style="stroke:black;stroke-width:3" fill-opacity="0.1"/>
	<polygon points="601.433,618.603 639.64,633.878 621.729,625.733 587.138,611.937 " style="stroke:black;stroke-width:3" fill-opacity="0.1"/>
	<polygon points="587.138,611.937 621.729,625.733 599.476,636.076 573.448,625.19 " style="stroke:black;stroke-width:3" fill-opacity="0.1"/>
	<polygon points="573.448,625.19 599.476,636.076 586.245,659.033 568.657,651.164 " style="stroke:black;stroke-width:3" fill-opacity="0.1"/>
	<polygon points="568.657,651.164 586.245,659.033 590.059,680.729 575.92,674.115 " style="stroke:black;stroke-width:3" fill-opacity="0.1"/>
	<polygon points="575.92,674.115 590.059,680.729 608.35,688.282 590.689,680.038 " style="stroke:black;stroke-width:3" fill-opacity="0.1"/>
	<polygon points="590.689,680.038 608.35,688.282 630.141,677.69 603.978,666.01 " style="stroke:black;stroke-width:3" fill-opacity="0.1"/>
	<polygon points="603.978,666.01 630.141,677.69 642.993,655.326 608.295,640.779 " style="stroke:black;stroke-width:3" fill-opacity="0.1"/>
	<polygon points="608.295,640.779 642.993,655.326 639.64,633.878 601.433,618.603 " style="stroke:black;stroke-width:3" fill-opacity="0.1"/>
	<polygon points="639.64,633.878 659.191,671.213 638.867,659.557 621.729,625.733 " style="stroke:black;stroke-width:3" fill-opacity="0.1"/>
	<polygon points="621.729,625.733 638.867,659.557 611.719,661.963 599.476,636.076 " style="stroke:black;stroke-width:3" fill-opacity="0.1"/>
	<polygon points="599.476,636.076 611.719,661.963 594.192,676.925 586.245,659.033 " style="stroke:black;stroke-width:3" fill-opacity="0.1"/>
	<polygon points="586.245,659.033 594.192,676.925 596.438,695.312 590.059,680.729 " style="stroke:black;stroke-width:3" fill-opacity="0.1"/>
	<polygon points="590.059,680.729 596.438,695.312 616.613,706.453 608.35,688.282 " style="stroke:black;stroke-width:3" fill-opacity="0.1"/>
	<polygon points="608.35,688.282 616.613,706.453 643.009,704.18 630.141,677.69 " style="stroke:black;stroke-width:3" fill-opacity="0.1"/>
	<polygon points="630.141,677.69 643.009,704.18 660.685,689.732 642.993,655.326 " style="stroke:black;stroke-width:3" fill-opacity="0.1"/>
	<polygon points="642.993,655.326 660.685,689.732 659.191,671.213 639.64,633.878 " style="stroke:black;stroke-width:3" fill-opacity="0.1"/>
	<polygon points="659.191,671.213 652.04,722.784 631.587,706.153 638.867,659.557 " style="stroke:black;stroke-width:3" fill-opacity="0.1"/>
	<polygon points="638.867,659.557 631.587,706.153 605.509,696.921 611.719,661.963 " style="stroke:black;stroke-width:3" fill-opacity="0.1"/>
	<polygon points="611.719,661.963 605.509,696.921 589.729,700.49 594.192,676.925 " style="stroke:black;stroke-width:3" fill-opacity="0.1"/>
	<polygon points="594.192,676.925 589.729,700.49 592.938,714.232 596.438,695.312 " style="stroke:black;stroke-width:3" fill-opacity="0.1"/>
	<polygon points="596.438,695.312 592.938,714.232 612.644,730.109 616.613,706.453 " style="stroke:black;stroke-width:3" fill-opacity="0.1"/>
	<polygon points="616.613,706.453 612.644,730.109 637.818,739.336 643.009,704.18 " style="stroke:black;stroke-width:3" fill-opacity="0.1"/>
	<polygon points="643.009,704.18 637.818,739.336 654.346,736.521 660.685,689.732 " style="stroke:black;stroke-width:3" fill-opacity="0.1"/>
	<polygon points="660.685,689.732 654.346,736.521 652.04,722.784 659.191,671.213 " style="stroke:black;stroke-width:3" fill-opacity="0.1"/>
	<polygon points="652.04,722.784 617.403,773.826 599.624,752.249 631.587,706.153 " style="stroke:black;stroke-width:3" fill-opacity="0.1"/>
	<polygon points="631.587,706.153 599.624,752.249 581.286,731.103 605.509,696.921 " style="stroke:black;stroke-width:3" fill-opacity="0.1"/>
	<polygon points="605.509,696.921 581.286,731.103 573.512,723.176 589.729,700.49 " style="stroke:black;stroke-width:3" fill-opacity="0.1"/>
	<polygon points="589.729,700.49 573.512,723.176 580.159,732.262 592.938,714.232 " style="stroke:black;stroke-width:3" fill-opacity="0.1"/>
	<polygon points="592.938,714.232 580.159,732.262 596.977,752.667 612.644,730.109 " style="stroke:black;stroke-width:3" fill-opacity="0.1"/>
	<polygon points="612.644,730.109 596.977,752.667 614.768,773.234 637.818,739.336 " style="stroke:black;stroke-width:3" fill-opacity="0.1"/>
	<polygon points="637.818,739.336 614.768,773.234 623.502,782.334 654.346,736.521 " style="stroke:black;stroke-width:3" fill-opacity="0.1"/>
	<polygon points="654.346,736.521 623.502,782.334 617.403,773.826 652.04,722.784 " style="stroke:black;stroke-width:3" fill-opacity="0.1"/>
	<polygon points="617.403,773.826 565.114,807.199 552.048,782.643 599.624,752.249 " style="stroke:black;stroke-width:3" fill-opacity="0.1"/>
	<polygon points="599.624,752.249 552.048,782.643 545.857,753.76 581.286,731.103 " style="stroke:black;stroke-width:3" fill-opacity="0.1"/>
	<polygon points="581.286,731.103 545.857,753.76 550.036,738.194 573.512,723.176 " style="stroke:black;stroke-width:3" fill-opacity="0.1"/>
	<polygon points="573.512,723.176 550.036,738.194 561.617,744.119 580.159,732.262 " style="stroke:black;stroke-width:3" fill-opacity="0.1"/>
	<polygon points="580.159,732.262 561.617,744.119 573.943,767.383 596.977,752.667 " style="stroke:black;stroke-width:3" fill-opacity="0.1"/>
	<polygon points="596.977,752.667 573.943,767.383 580.296,795.238 614.768,773.234 " style="stroke:black;stroke-width:3" fill-opacity="0.1"/>
	<polygon points="614.768,773.234 580.296,795.238 576.857,812.095 623.502,782.334 " style="stroke:black;stroke-width:3" fill-opacity="0.1"/>
	<polygon points="623.502,782.334 576.857,812.095 565.114,807.199 617.403,773.826 " style="stroke:black;stroke-width:3" fill-opacity="0.1"/>
<text x="559.694" y="809.422" fill="red">Torus.002</text>
<circle r="10" cx="559.694" cy="709.422" fill="red" />
</svg>